<svg xmlns="http://www.w3.org/2000/svg" width="217.797" height="248.642" viewBox="0 0 217.797 248.642">
  <defs>
    <style>
      .cls-1 {
        fill: #ddd2f3;
      }

      .cls-2 {
        fill: #e3707f;
      }

      .cls-3 {
        fill: #8aa9fc;
      }

      .cls-4 {
        fill: #6e3281;
      }

      .cls-5 {
        fill: #edc483;
      }

      .cls-6 {
        fill: #251a51;
      }

      .cls-7 {
        fill: #f6aea6;
      }

      .cls-10, .cls-11, .cls-12, .cls-13, .cls-16, .cls-8, .cls-9 {
        fill: none;
        stroke-miterlimit: 10;
      }

      .cls-10, .cls-11, .cls-13, .cls-8 {
        stroke: #251a51;
      }

      .cls-12, .cls-13, .cls-16, .cls-8 {
        stroke-width: 0.05px;
      }

      .cls-9 {
        stroke: #e4e1ea;
        stroke-width: 0.02px;
      }

      .cls-10, .cls-11 {
        stroke-width: 0.25px;
      }

      .cls-10 {
        opacity: 0.18;
      }

      .cls-11 {
        opacity: 0.13;
      }

      .cls-12 {
        stroke: #6338a1;
      }

      .cls-13 {
        stroke-dasharray: 2;
      }

      .cls-14 {
        fill: #e8947e;
      }

      .cls-15 {
        fill: #6338a1;
      }

      .cls-16 {
        stroke: #f9f2fc;
      }

      .cls-17 {
        fill: #e4e1ea;
      }
    </style>
  </defs>
  <g id="no-my-add" transform="translate(-363.425 -298.095)">
    <g id="Group_367" data-name="Group 367" transform="translate(363.426 298.095)">
      <g id="Group_355" data-name="Group 355" transform="translate(76.415)">
        <circle id="Ellipse_73" data-name="Ellipse 73" class="cls-1" cx="59.224" cy="59.224" r="59.224" transform="translate(18.836 6.824)"/>
        <path id="Path_1229" data-name="Path 1229" class="cls-2" d="M410.567,161.594a11.373,11.373,0,0,1,5.586-.378,6.82,6.82,0,0,1,4.523,3.119c1.065,1.873.965,4.164.833,6.315q-.492,8.084-.986,16.167a9.832,9.832,0,0,0,.407,4.432,3.37,3.37,0,0,0,3.5,2.213,12.826,12.826,0,0,0,2.086-.93,1.774,1.774,0,0,1,2.1.324,1.89,1.89,0,0,1,.225,1.311,6.4,6.4,0,0,1-3.2,4.819,1.8,1.8,0,0,1,2.341,1.687,2.93,2.93,0,0,1-1.969,2.56,8.594,8.594,0,0,1-3.388.388,1.786,1.786,0,0,1,1.578,1.962,2.7,2.7,0,0,1-1.7,2.088,5.787,5.787,0,0,1-2.784.295,10.506,10.506,0,0,1-5.559-2.07c-2.747-2.172-3.86-5.878-3.9-9.379s.833-6.939,1.321-10.407c1.133-8.042.207-16.216-.72-24.285l.676-.2" transform="translate(-326.826 -152.674)"/>
        <g id="Group_346" data-name="Group 346" transform="translate(92.346 126.548)">
          <path id="Path_1230" data-name="Path 1230" class="cls-3" d="M418.8,248.646c-2.186,2.1-3.016,5.364-.932,7.885a6.113,6.113,0,0,0,8.207.984c5.916-4.566-.25-12.99-6.633-11.247a1.061,1.061,0,0,0,.281,2.074c1.866.106,3.864.177,5.354,1.485a3.881,3.881,0,0,1,.323,5.4c-3.479,4.278-9.521-2.022-5.867-5.846a.518.518,0,0,0-.733-.733Z" transform="translate(-416.67 -246.035)"/>
        </g>
        <g id="Group_347" data-name="Group 347" transform="translate(21.904 88.136)">
          <path id="Path_1231" data-name="Path 1231" class="cls-4" d="M370.991,236.162a8.009,8.009,0,0,1-2.155-2.725c-.826-2.339.754-3.5,2.607-4.368,1.888-.887,3.412-1.92,3.974-4.054.875-3.334-1.962-7.447-5.591-6.457-1.176.321-.826,1.819-.022,2.282,1.123.649,2.626,1.019,2.815,2.565.253,2.067-1.785,2.66-3.212,3.4a6.092,6.092,0,0,0-3.192,3.728c-.843,2.917.9,6.878,4.309,6.711a.687.687,0,0,0,.467-1.086Z" transform="translate(-366.005 -218.407)"/>
        </g>
        <g id="Group_348" data-name="Group 348" transform="translate(15.699 134.886)">
          <path id="Path_1232" data-name="Path 1232" class="cls-5" d="M361.548,258.762c.3,1.933,2.305,6.022,4.419,6.587,1.125.3,1.962-.441,2.836-1.041,1.588-1.094,3.156-2.215,4.727-3.333a1.373,1.373,0,0,0,.484-1.846l-4.168-6.417a1.365,1.365,0,0,0-1.846-.484,50.326,50.326,0,0,0-5.174,3.8c-1.076.991.293,2.612,1.516,1.965a47.764,47.764,0,0,0,5.019-3.431l-1.845-.484q2.086,3.208,4.17,6.416l.484-1.846c-.943.672-1.888,1.339-2.828,2.015-.533.381-2.315,2.051-2.907,1.984-.531-.06-1.645-1.949-1.971-2.337a10.8,10.8,0,0,0-2.152-2.129c-.416-.284-.823.182-.762.584Z" transform="translate(-361.542 -252.032)"/>
        </g>
        <g id="Group_349" data-name="Group 349" transform="translate(111.64 47.044)">
          <path id="Path_1233" data-name="Path 1233" class="cls-5" d="M430.553,195.583c.3,1.933,2.305,6.022,4.419,6.586,1.125.3,1.962-.439,2.836-1.041,1.588-1.093,3.156-2.213,4.727-3.331a1.373,1.373,0,0,0,.484-1.846q-2.083-3.208-4.17-6.417a1.361,1.361,0,0,0-1.845-.484,50.171,50.171,0,0,0-5.174,3.8c-1.078.993.293,2.614,1.516,1.966a47.776,47.776,0,0,0,5.019-3.433l-1.845-.484q2.083,3.21,4.168,6.417.242-.922.485-1.845c-.943.672-1.89,1.339-2.829,2.013-.531.382-2.314,2.052-2.907,1.985-.53-.06-1.643-1.949-1.97-2.337a10.848,10.848,0,0,0-2.152-2.13c-.416-.284-.823.184-.762.585Z" transform="translate(-430.547 -188.852)"/>
        </g>
        <g id="Group_350" data-name="Group 350" transform="translate(108.441 88.558)">
          <path id="Path_1234" data-name="Path 1234" class="cls-2" d="M439.7,218.775c-3.614,1.68-7.167,3.454-10.713,5.272a1.2,1.2,0,0,0-.327,2.024c2.6,2.688,5.162,5.382,7.954,7.871a1.1,1.1,0,0,0,1.687-.41c1.734-3.783,4.366-8.943,3.646-13.235-.184-1.093-1.851-1.588-2.3-.371-.7,1.9-.694,4.039-1.141,6.022a31.455,31.455,0,0,1-2.209,6.7l1.888-.2c-2.546-2.881-5.3-5.532-8.052-8.214q-.023.936-.049,1.874c3.476-1.951,6.92-3.932,10.317-6.017.717-.439.068-1.674-.7-1.315Z" transform="translate(-428.245 -218.711)"/>
        </g>
        <g id="Group_351" data-name="Group 351" transform="translate(51.681 127.284)">
          <path id="Path_1235" data-name="Path 1235" class="cls-2" d="M388.7,257.727a66.985,66.985,0,0,0,7.322-9.51c.645-1.055-.948-2.265-1.763-1.3a67.184,67.184,0,0,0-6.743,9.937.746.746,0,0,0,1.185.876Z" transform="translate(-387.421 -246.564)"/>
        </g>
        <g id="Group_352" data-name="Group 352" transform="translate(136.712 33.895)">
          <path id="Path_1236" data-name="Path 1236" class="cls-6" d="M452.6,180.215l-.2-.178a2.248,2.248,0,0,0-3.18,3.18l.177.2a2.265,2.265,0,1,0,3.2-3.2Z" transform="translate(-448.579 -179.395)"/>
        </g>
        <g id="Group_353" data-name="Group 353" transform="translate(33.773 118.368)">
          <path id="Path_1237" data-name="Path 1237" class="cls-6" d="M378.559,240.971l-.2-.177a2.248,2.248,0,1,0-3.18,3.18l.177.2a2.265,2.265,0,1,0,3.2-3.2Z" transform="translate(-374.542 -240.151)"/>
        </g>
        <path id="Path_1238" data-name="Path 1238" class="cls-7" d="M413.553,190.3l-39.289,14.729,3.75-15.867-10.218-2.6s-10.991,31.016-3.358,31.846c13.363,1.454,33.581-3.837,33.581-3.837Z" transform="translate(-345.765 -142.702)"/>
        <path id="Path_1239" data-name="Path 1239" class="cls-6" d="M389.194,225.2l.09,31.073c10.23,12.579,45.85-3.686,45.85-3.686l.416-12.709.827-30.27c-.82-12.056-12.016-17.972-12.016-17.972-4.629-2.307-11.687-3.616-18.047-3.3-6.639.328-8.28,3.507-11.014,9.566C393.091,202.79,389.194,207.382,389.194,225.2Z" transform="translate(-335.049 -142.03)"/>
        <path id="Path_1240" data-name="Path 1240" class="cls-7" d="M420.156,170.338l-.471,6.214s5.283.713,3.778,5.532-5.121,2.711-5.121,2.711-.9,12.349-13.553,8.433c-10.069-3.116-9.453-16.153-8.174-27.268a7.441,7.441,0,0,1,8.822-6.437L413.041,161A8.827,8.827,0,0,1,420.156,170.338Z" transform="translate(-332.426 -153.312)"/>
        <path id="Path_1241" data-name="Path 1241" class="cls-7" d="M418.026,175.441l-3.408,18.176a7.292,7.292,0,0,1-8.859,5.748h0A7.291,7.291,0,0,1,400.273,191l1.851-10.418Z" transform="translate(-330.768 -147.043)"/>
        <path id="Path_1242" data-name="Path 1242" class="cls-8" d="M402.53,167.629q-.28,4.469-.56,8.939a4.179,4.179,0,0,0,.185,1.947c.259.558.934.748,1.183.181" transform="translate(-330.072 -150.093)"/>
        <path id="Path_1243" data-name="Path 1243" class="cls-8" d="M412.039,183.067a10.265,10.265,0,0,1-12.045-.254" transform="translate(-330.833 -144.166)"/>
        <path id="Path_1244" data-name="Path 1244" class="cls-8" d="M406.918,176.233a2.93,2.93,0,0,1-5.146,1.653" transform="translate(-330.139 -146.734)"/>
        <path id="Path_1245" data-name="Path 1245" class="cls-8" d="M414.355,173.87q-.382.861-.765,1.723a.589.589,0,0,1,.95.046.851.851,0,0,1-.193,1.03,1.576,1.576,0,0,1-1.051.363" transform="translate(-325.64 -147.657)"/>
        <path id="Path_1246" data-name="Path 1246" class="cls-8" d="M408.832,168.024a2.785,2.785,0,0,0-2.542-.667" transform="translate(-328.375 -150.229)"/>
        <path id="Path_1247" data-name="Path 1247" class="cls-8" d="M401.315,166.4a3.451,3.451,0,0,0-2.891-.253" transform="translate(-331.446 -150.752)"/>
        <path id="Path_1248" data-name="Path 1248" class="cls-2" d="M419.733,177.487c-3.532-3.441-4.569-9.176-5.527-14.015a12.361,12.361,0,0,1-11.539,1.5,18.589,18.589,0,0,1-4.11,3.591,1.842,1.842,0,0,1-1.453.4c-.592-.179-.856-.859-1-1.461a10.378,10.378,0,0,1,.206-5.858,7.054,7.054,0,0,1,3.931-4.216,10.282,10.282,0,0,1,6.247.1,34.663,34.663,0,0,1,8.818,3.643c2.7,1.584,5.3,3.677,6.444,6.592s1.141,8.577-1.623,10.05" transform="translate(-332.475 -154.248)"/>
        <path id="Path_1249" data-name="Path 1249" class="cls-6" d="M404.44,189.188c3.42-1.358-22.877,8.4-22.877,8.4l2.668,17.988,10-3.281Z" transform="translate(-338.027 -141.728)"/>
        <path id="Path_1250" data-name="Path 1250" class="cls-7" d="M375.577,194.51s6.863-9.593,5.639-9.589-1.862,1.812-4.238,3.048c0,0,3.792-12,2.618-11.746s-3.974,7.953-4.157,7.945,2.415-8.636,1.442-8.741-3.36,7.918-3.36,7.918,1.635-7.628.6-7.8-2.554,6.857-2.554,6.857,1.215-5.9.278-6.047c-.571-.088-5.752,14.553-5.752,14.553.136,0,9.481,3.6,9.481,3.6" transform="translate(-344.065 -147.05)"/>
        <path id="Path_1251" data-name="Path 1251" class="cls-8" d="M421.126,193.836a13.089,13.089,0,0,0-6.372.357,7.623,7.623,0,0,0-4.648,4.179,12.486,12.486,0,0,0-.318,5.977q.945,8.617,1.888,17.236" transform="translate(-327.089 -139.951)"/>
        <path id="Path_1252" data-name="Path 1252" class="cls-8" d="M431.722,215.168l-21.3-2.254" transform="translate(-326.763 -132.415)"/>
        <path id="Path_1253" data-name="Path 1253" class="cls-4" d="M402.8,156.535v20.583H389.051l-.438,7.808-8.082-8.258H350.251l2.666-21.651Z" transform="translate(-350.251 -155.016)"/>
        <path id="Path_1254" data-name="Path 1254" class="cls-9" d="M396.083,160.43H355.426" transform="translate(-348.23 -152.903)"/>
        <path id="Path_1255" data-name="Path 1255" class="cls-9" d="M396.083,163.273H355.426" transform="translate(-348.23 -151.793)"/>
        <path id="Path_1256" data-name="Path 1256" class="cls-9" d="M391.684,166.27H366.7" transform="translate(-343.831 -150.623)"/>
        <path id="Path_1257" data-name="Path 1257" class="cls-8" d="M398.446,169.356a2.464,2.464,0,0,1,1.1,1.037" transform="translate(-331.437 -149.419)"/>
        <path id="Path_1258" data-name="Path 1258" class="cls-8" d="M405.956,169.807a5.228,5.228,0,0,1,1.218,1.624" transform="translate(-328.505 -149.243)"/>
        <path id="Path_1259" data-name="Path 1259" class="cls-10" d="M403.413,178.208l2.34-.729" transform="translate(-329.498 -146.248)"/>
        <path id="Path_1260" data-name="Path 1260" class="cls-11" d="M405.515,172.781l5.785-.042" transform="translate(-328.678 -148.098)"/>
        <path id="Path_1261" data-name="Path 1261" class="cls-11" d="M396.946,173.387l5.784-.042" transform="translate(-332.022 -147.862)"/>
        <path id="Path_1262" data-name="Path 1262" class="cls-12" d="M411.595,160.837q1.366,2.448,2.6,4.966c.282.573.531,1.338.075,1.784" transform="translate(-326.304 -152.744)"/>
        <path id="Path_1263" data-name="Path 1263" class="cls-3" d="M392.091,208.581l-2.331,31,32.3,4.326-2.185-35.772Z" transform="translate(-334.828 -134.281)"/>
        <path id="Path_1264" data-name="Path 1264" class="cls-3" d="M393.287,194.708V219.29l3.77-1.413V189.862l-3.77,1.147" transform="translate(-333.451 -141.414)"/>
        <path id="Path_1265" data-name="Path 1265" class="cls-3" d="M417.922,190.879s-14.583,1.878-10.272,25.706l3.652.391s-4.121-22.385,9.588-23.984Z" transform="translate(-328.155 -141.017)"/>
        <g id="Group_354" data-name="Group 354" transform="translate(42.751 77.515)">
          <path id="Path_1266" data-name="Path 1266" class="cls-7" d="M423.716,210.768s4.977,29.339-2.042,28.618c-23.1-2.375-36.847-2.7-36.847-2.7L381,244.639c-.089,1.354,43.737,13.9,50.779,9.751,4.972-2.928,12.893-10.817,9.3-34.392l-.85-7.9Z" transform="translate(-380.999 -210.768)"/>
        </g>
        <path id="Path_1267" data-name="Path 1267" class="cls-6" d="M425.017,197.386s5.386,5.172,6.592,24.747l-20.85-2.308S407.285,186.488,425.017,197.386Z" transform="translate(-326.738 -139.332)"/>
        <path id="Path_1268" data-name="Path 1268" class="cls-7" d="M390.757,230.148s-11.3-3.545-10.913-2.379,2.311,1.21,4.234,3.089c0,0-12.634.136-12.027,1.178s8.832,1.3,8.88,1.479-9,.4-8.791,1.361,8.608.729,8.608.729-7.79.827-7.63,1.866,7.342.289,7.342.289-6.012.688-5.856,1.628c.1.573,17.6.7,17.638,1.125.019.22-1.485-10.365-1.485-10.365" transform="translate(-341.749 -126.709)"/>
        <path id="Path_1269" data-name="Path 1269" class="cls-8" d="M393.055,208.712a5.976,5.976,0,0,0,.423,2.48,1.8,1.8,0,0,0,3.513-.336,5.961,5.961,0,0,0-.029-2.284" transform="translate(-333.541 -134.11)"/>
        <path id="Path_1270" data-name="Path 1270" class="cls-8" d="M394.351,208.9a.567.567,0,1,1-.078.053" transform="translate(-333.14 -134.004)"/>
        <path id="Path_1271" data-name="Path 1271" class="cls-8" d="M407.5,208.343a1.662,1.662,0,1,0,3.2-.135" transform="translate(-327.916 -134.253)"/>
        <path id="Path_1272" data-name="Path 1272" class="cls-8" d="M408.567,207.855c-.441.083-.4.866.035.962a.644.644,0,0,0,.649-.875.84.84,0,0,0-1.148-.324" transform="translate(-327.667 -134.524)"/>
        <path id="Path_1273" data-name="Path 1273" class="cls-13" d="M412.725,216.821a9.14,9.14,0,1,1-18.02-.651Z" transform="translate(-332.965 -131.144)"/>
      </g>
      <g id="Group_356" data-name="Group 356" transform="translate(154.654 134.831)">
        <path id="Path_1274" data-name="Path 1274" class="cls-14" d="M407.981,264.957a69.454,69.454,0,0,0,1.721-11.882c.053-1.224-1.94-1.531-2.17-.293a69.428,69.428,0,0,0-1.009,11.978.746.746,0,0,0,1.458.2Z" transform="translate(-406.523 -251.992)"/>
      </g>
      <g id="Group_357" data-name="Group 357" transform="translate(172.293 160.153)">
        <path id="Path_1275" data-name="Path 1275" class="cls-6" d="M423.227,271.025l-.2-.178a2.248,2.248,0,0,0-3.18,3.18l.177.2a2.265,2.265,0,0,0,3.2-3.2Z" transform="translate(-419.21 -270.205)"/>
      </g>
      <g id="Group_366" data-name="Group 366" transform="translate(0 105.304)">
        <circle id="Ellipse_74" data-name="Ellipse 74" class="cls-1" cx="59.224" cy="59.224" r="59.224" transform="matrix(0.239, -0.971, 0.971, 0.239, 0, 115.011)"/>
        <path id="Path_1276" data-name="Path 1276" class="cls-7" d="M353.3,268.988l39.29,14.728-3.751-15.865,10.218-2.6s10.991,31.018,3.359,31.848c-13.364,1.453-33.583-3.839-33.583-3.839Z" transform="translate(-272.644 -217.288)"/>
        <path id="Path_1277" data-name="Path 1277" class="cls-15" d="M376.364,303.888l-.09,31.072c-10.232,12.58-45.851-3.686-45.851-3.686l-.416-12.708-.827-30.271C330,276.24,341.2,270.323,341.2,270.323c4.627-2.305,11.687-3.616,18.047-3.3,6.639.328,8.28,3.508,11.014,9.566C372.466,281.481,376.364,286.074,376.364,303.888Z" transform="translate(-282.061 -216.616)"/>
        <g id="Group_358" data-name="Group 358" transform="translate(44.713 81.62)">
          <path id="Path_1278" data-name="Path 1278" class="cls-7" d="M345.715,289.459s-4.979,29.339,2.041,28.618c23.1-2.375,36.849-2.7,36.849-2.7l3.828,7.949c.088,1.354-43.738,13.9-50.779,9.752-4.972-2.93-12.894-10.817-9.3-34.392l.85-7.9Z" transform="translate(-327.449 -289.459)"/>
        </g>
        <path id="Path_1279" data-name="Path 1279" class="cls-15" d="M333.3,276.076s-5.388,5.174-6.592,24.747l20.85-2.307S351.033,265.18,333.3,276.076Z" transform="translate(-283.025 -213.917)"/>
        <path id="Path_1280" data-name="Path 1280" class="cls-7" d="M339.964,249.03l.473,6.214s-5.285.712-3.779,5.531,5.121,2.711,5.121,2.711.9,12.349,13.555,8.434c10.068-3.116,9.452-16.153,8.174-27.268a7.442,7.442,0,0,0-8.822-6.437l-7.607,1.481A8.83,8.83,0,0,0,339.964,249.03Z" transform="translate(-279.247 -227.897)"/>
        <path id="Path_1281" data-name="Path 1281" class="cls-7" d="M339.3,254.132l3.408,18.178a7.291,7.291,0,0,0,8.858,5.748h0a7.291,7.291,0,0,0,5.486-8.367L355.2,259.274Z" transform="translate(-278.11 -221.629)"/>
        <path id="Path_1282" data-name="Path 1282" class="cls-8" d="M350.171,246.32q.282,4.469.56,8.94a4.173,4.173,0,0,1-.185,1.945c-.259.559-.933.748-1.183.182" transform="translate(-274.182 -224.679)"/>
        <path id="Path_1283" data-name="Path 1283" class="cls-8" d="M343.652,261.758A10.265,10.265,0,0,0,355.7,261.5" transform="translate(-276.411 -218.752)"/>
        <path id="Path_1284" data-name="Path 1284" class="cls-8" d="M346.837,254.925a2.93,2.93,0,0,0,5.146,1.653" transform="translate(-275.168 -221.32)"/>
        <path id="Path_1285" data-name="Path 1285" class="cls-8" d="M338.333,252.561l.763,1.724a.588.588,0,0,0-.948.046.849.849,0,0,0,.192,1.03,1.58,1.58,0,0,0,1.051.362" transform="translate(-278.6 -222.243)"/>
        <path id="Path_1286" data-name="Path 1286" class="cls-8" d="M344.191,246.715a2.785,2.785,0,0,1,2.542-.667" transform="translate(-276.201 -224.815)"/>
        <path id="Path_1287" data-name="Path 1287" class="cls-8" d="M351.806,245.089a3.451,3.451,0,0,1,2.891-.252" transform="translate(-273.228 -225.338)"/>
        <path id="Path_1288" data-name="Path 1288" class="cls-6" d="M340.07,256.179c3.53-3.443,4.567-9.178,5.527-14.015a12.362,12.362,0,0,0,11.537,1.5,18.664,18.664,0,0,0,4.111,3.591,1.838,1.838,0,0,0,1.452.4c.592-.179.856-.858,1-1.461a10.385,10.385,0,0,0-.206-5.856,7.046,7.046,0,0,0-3.931-4.216,10.3,10.3,0,0,0-6.248.1,34.709,34.709,0,0,0-8.818,3.644c-2.7,1.582-5.3,3.678-6.444,6.59s-1.14,8.577,1.623,10.051" transform="translate(-278.88 -228.833)"/>
        <path id="Path_1289" data-name="Path 1289" class="cls-15" d="M354.378,267.879c-3.42-1.358,22.877,8.4,22.877,8.4l-2.667,17.988-10-3.28Z" transform="translate(-272.344 -216.314)"/>
        <path id="Path_1290" data-name="Path 1290" class="cls-7" d="M367.227,308.839s11.3-3.544,10.914-2.379-2.311,1.21-4.234,3.089c0,0,12.634.138,12.027,1.179s-8.832,1.3-8.882,1.479,9,.4,8.793,1.361-8.609.727-8.609.727,7.792.829,7.632,1.867-7.342.289-7.342.289,6.012.688,5.855,1.628c-.095.571-17.6.7-17.638,1.123-.018.221,1.485-10.365,1.485-10.365" transform="translate(-267.788 -201.294)"/>
        <path id="Path_1291" data-name="Path 1291" class="cls-7" d="M381.019,273.2s-6.863-9.593-5.639-9.588,1.862,1.81,4.238,3.048c0,0-3.793-12-2.619-11.746s3.974,7.951,4.157,7.943-2.415-8.636-1.442-8.741,3.362,7.919,3.362,7.919-1.635-7.629-.6-7.8,2.553,6.857,2.553,6.857-1.215-5.9-.277-6.045c.57-.088,5.751,14.551,5.751,14.551-.135,0-9.479,3.6-9.479,3.6" transform="translate(-264.083 -221.636)"/>
        <path id="Path_1292" data-name="Path 1292" class="cls-16" d="M330.046,289.774a1.575,1.575,0,0,1,2.5-1.4c.51.371.819,1.054,1.433,1.192a1.292,1.292,0,0,0,1.379-.932,3.747,3.747,0,0,0,.013-1.8" transform="translate(-281.724 -208.867)"/>
        <path id="Path_1293" data-name="Path 1293" class="cls-16" d="M343.6,286.274a1.573,1.573,0,0,1-2.5-1.4c.05-.628.474-1.249.271-1.845a1.3,1.3,0,0,0-1.513-.694,3.761,3.761,0,0,0-1.546.929" transform="translate(-278.495 -210.633)"/>
        <path id="Path_1294" data-name="Path 1294" class="cls-16" d="M343.3,276.726a1.573,1.573,0,0,1-2.5-1.4c.05-.628.474-1.249.271-1.845a1.3,1.3,0,0,0-1.513-.694,3.761,3.761,0,0,0-1.546.929" transform="translate(-278.612 -214.36)"/>
        <path id="Path_1295" data-name="Path 1295" class="cls-16" d="M350.336,281.9a1.575,1.575,0,0,1-1.178,2.61c-.631,0-1.285-.363-1.862-.11a1.3,1.3,0,0,0-.559,1.568,3.789,3.789,0,0,0,1.059,1.46" transform="translate(-275.233 -210.788)"/>
        <path id="Path_1296" data-name="Path 1296" class="cls-16" d="M350.306,293.492a1.575,1.575,0,0,1,2.387,1.581c-.1.623-.566,1.21-.407,1.82a1.3,1.3,0,0,0,1.458.8,3.786,3.786,0,0,0,1.61-.811" transform="translate(-273.814 -206.355)"/>
        <path id="Path_1297" data-name="Path 1297" class="cls-16" d="M357.907,277.743a1.574,1.574,0,0,1,2.386,1.581c-.1.623-.564,1.21-.406,1.82a1.293,1.293,0,0,0,1.457.8,3.79,3.79,0,0,0,1.611-.811" transform="translate(-270.846 -212.503)"/>
        <path id="Path_1298" data-name="Path 1298" class="cls-16" d="M365.822,283.619a1.574,1.574,0,0,1,.681-2.781c.619-.118,1.329.122,1.849-.232a1.294,1.294,0,0,0,.263-1.643,3.774,3.774,0,0,0-1.308-1.242" transform="translate(-267.989 -212.421)"/>
        <path id="Path_1299" data-name="Path 1299" class="cls-16" d="M342.113,301.635a1.575,1.575,0,0,1,2.387,1.582c-.1.623-.564,1.208-.406,1.819a1.293,1.293,0,0,0,1.457.8,3.777,3.777,0,0,0,1.611-.812" transform="translate(-277.012 -203.176)"/>
        <path id="Path_1300" data-name="Path 1300" class="cls-16" d="M360.422,285.123a1.575,1.575,0,0,1-1.478,2.453c-.626-.071-1.232-.514-1.835-.33a1.293,1.293,0,0,0-.74,1.49,3.763,3.763,0,0,0,.879,1.574" transform="translate(-271.456 -209.532)"/>
        <path id="Path_1301" data-name="Path 1301" class="cls-16" d="M362.442,293.266a1.574,1.574,0,0,1-1.479,2.451c-.626-.071-1.232-.513-1.835-.329a1.3,1.3,0,0,0-.74,1.49,3.775,3.775,0,0,0,.879,1.575" transform="translate(-270.668 -206.353)"/>
        <path id="Path_1302" data-name="Path 1302" class="cls-16" d="M348.569,292.5a1.575,1.575,0,0,1-2.743.822c-.416-.473-.567-1.207-1.137-1.477a1.294,1.294,0,0,0-1.549.606,3.749,3.749,0,0,0-.407,1.757" transform="translate(-276.77 -206.941)"/>
        <path id="Path_1303" data-name="Path 1303" class="cls-16" d="M363.273,302.557a1.576,1.576,0,0,1-2.743.822c-.416-.473-.567-1.208-1.137-1.477a1.292,1.292,0,0,0-1.549.606,3.744,3.744,0,0,0-.407,1.757" transform="translate(-271.03 -203.016)"/>
        <path id="Path_1304" data-name="Path 1304" class="cls-16" d="M362.847,272.1a1.575,1.575,0,0,1-2.743.823c-.416-.474-.567-1.208-1.137-1.478a1.3,1.3,0,0,0-1.55.606,3.782,3.782,0,0,0-.407,1.757" transform="translate(-271.197 -214.905)"/>
        <path id="Path_1305" data-name="Path 1305" class="cls-16" d="M353.427,303.276a1.575,1.575,0,0,1-.328,2.845c-.6.2-1.335.044-1.806.462a1.3,1.3,0,0,0-.056,1.664,3.778,3.778,0,0,0,1.454,1.068" transform="translate(-273.557 -202.445)"/>
        <path id="Path_1306" data-name="Path 1306" class="cls-16" d="M332.181,282.575a1.574,1.574,0,0,1,1.71-2.3c.617.131,1.176.631,1.795.506a1.3,1.3,0,0,0,.882-1.411,3.774,3.774,0,0,0-.72-1.653" transform="translate(-280.962 -212.421)"/>
        <path id="Path_1307" data-name="Path 1307" class="cls-16" d="M349.014,279.562a1.575,1.575,0,0,1,1.712-2.3c.616.131,1.176.631,1.794.506a1.293,1.293,0,0,0,.883-1.411,3.776,3.776,0,0,0-.722-1.653" transform="translate(-274.391 -213.597)"/>
        <path id="Path_1308" data-name="Path 1308" class="cls-8" d="M334.424,272.527a13.088,13.088,0,0,1,6.372.357,7.618,7.618,0,0,1,4.648,4.181,12.469,12.469,0,0,1,.318,5.977q-.943,8.617-1.887,17.236" transform="translate(-280.013 -214.537)"/>
        <path id="Path_1309" data-name="Path 1309" class="cls-8" d="M326.568,293.86l21.3-2.255" transform="translate(-283.08 -207.001)"/>
        <g id="Group_359" data-name="Group 359" transform="translate(113.552 81.019)">
          <path id="Path_1310" data-name="Path 1310" class="cls-4" d="M379.056,301.034a8.023,8.023,0,0,1,.812-3.379c1.331-2.092,3.219-1.567,5.047-.645,1.863.937,3.616,1.5,5.642.623,3.163-1.368,4.647-6.14,1.63-8.383-.979-.727-1.941.471-1.81,1.39.184,1.283.82,2.7-.279,3.8-1.47,1.475-3.194.236-4.66-.425a6.094,6.094,0,0,0-4.9-.211c-2.814,1.139-4.855,4.955-2.621,7.533a.689.689,0,0,0,1.144-.3Z" transform="translate(-376.961 -289.027)"/>
        </g>
        <g id="Group_360" data-name="Group 360" transform="translate(135.033 45.142)">
          <path id="Path_1311" data-name="Path 1311" class="cls-2" d="M394.544,265.834c-2.184,2.1-3.016,5.364-.932,7.883a6.112,6.112,0,0,0,8.209.984c5.915-4.566-.252-12.989-6.635-11.245a1.06,1.06,0,0,0,.281,2.073c1.867.107,3.864.178,5.356,1.486a3.882,3.882,0,0,1,.323,5.4c-3.48,4.277-9.523-2.022-5.869-5.846a.518.518,0,0,0-.733-.733Z" transform="translate(-392.411 -263.223)"/>
        </g>
        <g id="Group_361" data-name="Group 361" transform="translate(43.09 40.972)">
          <path id="Path_1312" data-name="Path 1312" class="cls-3" d="M328.415,262.835c-2.184,2.1-3.016,5.364-.932,7.883a6.11,6.11,0,0,0,8.207.984c5.916-4.566-.25-12.989-6.633-11.245a1.06,1.06,0,0,0,.281,2.073c1.866.107,3.864.178,5.354,1.486a3.882,3.882,0,0,1,.324,5.4c-3.48,4.277-9.523-2.022-5.869-5.846a.518.518,0,0,0-.733-.733Z" transform="translate(-326.282 -260.224)"/>
        </g>
        <g id="Group_362" data-name="Group 362" transform="translate(13.488 93.441)">
          <path id="Path_1313" data-name="Path 1313" class="cls-2" d="M305.027,300.795c1.5,5.584,3.16,11.106,4.882,16.627a1.743,1.743,0,0,0,2.813.969c4.488-3.048,8.978-6.045,13.228-9.421a1.6,1.6,0,0,0-.168-2.512c-4.979-3.417-11.7-8.462-18.019-8.5-1.607-.01-2.731,2.252-1.1,3.191,2.55,1.471,5.6,2,8.328,3.127a45.628,45.628,0,0,1,9.029,4.82q.094-1.374.186-2.749c-4.751,2.925-9.226,6.205-13.745,9.474l2.668.535c-1.927-5.454-3.906-10.87-6.044-16.244a1.1,1.1,0,0,0-2.056.678Z" transform="translate(-304.991 -297.961)"/>
        </g>
        <g id="Group_363" data-name="Group 363" transform="translate(143.293 71.107)">
          <path id="Path_1314" data-name="Path 1314" class="cls-5" d="M398.887,283.594a69.389,69.389,0,0,0,11.952.786,1.105,1.105,0,0,0,0-2.209,68,68,0,0,0-11.754-.036c-.772.057-1.08,1.336-.2,1.46Z" transform="translate(-398.352 -281.898)"/>
        </g>
        <g id="Group_364" data-name="Group 364" transform="translate(11.684 71.107)">
          <path id="Path_1315" data-name="Path 1315" class="cls-5" d="M304.229,283.594a69.388,69.388,0,0,0,11.952.786,1.105,1.105,0,0,0,0-2.209,68,68,0,0,0-11.754-.036c-.772.057-1.08,1.336-.2,1.46Z" transform="translate(-303.694 -281.898)"/>
        </g>
        <g id="Group_365" data-name="Group 365" transform="translate(34.342 65.586)">
          <path id="Path_1316" data-name="Path 1316" class="cls-6" d="M324.007,278.747l-.2-.177a2.248,2.248,0,0,0-3.18,3.18l.178.2a2.264,2.264,0,0,0,3.2-3.2Z" transform="translate(-319.99 -277.927)"/>
        </g>
        <path id="Path_1317" data-name="Path 1317" class="cls-8" d="M362.616,280.677c-.072,4.952.741,10.458.67,15.411" transform="translate(-269.01 -211.267)"/>
        <path id="Path_1318" data-name="Path 1318" class="cls-6" d="M379.209,269.395l10.327-2.9.611,1.871-10.419,3.224Z" transform="translate(-262.531 -216.802)"/>
        <path id="Path_1319" data-name="Path 1319" class="cls-17" d="M384.668,268.63a1.281,1.281,0,1,1-1.281-1.282A1.28,1.28,0,0,1,384.668,268.63Z" transform="translate(-261.4 -216.47)"/>
        <path id="Path_1320" data-name="Path 1320" class="cls-8" d="M353.08,246.938c.228.345.893,1.014,1.119,1.358" transform="translate(-272.731 -224.438)"/>
        <path id="Path_1321" data-name="Path 1321" class="cls-8" d="M346.319,247.888c.228.345.893,1.014,1.121,1.358" transform="translate(-275.37 -224.067)"/>
      </g>
    </g>
    <path id="Path_1322" data-name="Path 1322" class="cls-5" d="M354.848,218.3v20.583H341.095l-.438,7.808-8.082-8.258H302.294l2.666-21.651Z" transform="translate(70.87 167.188)"/>
    <path id="Path_1323" data-name="Path 1323" class="cls-9" d="M348.126,222.191H307.469" transform="translate(72.89 169.301)"/>
    <path id="Path_1324" data-name="Path 1324" class="cls-9" d="M348.126,225.034H307.469" transform="translate(72.89 170.411)"/>
    <path id="Path_1325" data-name="Path 1325" class="cls-9" d="M343.727,228.031H318.739" transform="translate(77.289 171.581)"/>
  </g>
</svg>
