<svg xmlns="http://www.w3.org/2000/svg" width="158.693" height="149.125" viewBox="0 0 158.693 149.125">
  <defs>
    <style>
      .cls-1 {
        fill: #ecebff;
      }

      .cls-2 {
        fill: #a8b3f4;
      }

      .cls-3 {
        fill: #d1d7fa;
      }

      .cls-4 {
        fill: #ff759c;
      }

      .cls-5 {
        fill: #8796f3;
      }

      .cls-6 {
        fill: #2942e9;
      }

      .cls-7 {
        fill: #5e72ef;
      }

      .cls-8 {
        fill: #001fe5;
      }
    </style>
  </defs>
  <g id="no-fav" transform="translate(-408.155 -353)">
    <g id="Group_7" data-name="Group 7" transform="translate(415.604 353)">
      <path id="Path_109" data-name="Path 109" class="cls-1" d="M607.149,145.913C577.52,162.5,556.267,198.2,553.519,232.7c-.721,9.05-.275,18.29,2.764,26.5,4.269,11.532,13.408,18.369,24.709,20.684,9.926,2.034,19.338-2.112,29.315-2.587,18.154-.865,35.984,18.332,58.926-1.28,10.281-8.79,7-14.447,13.545-25.906,6.407-11.224,19.541-20.588,18.4-34.879-.4-5-3.239-8.859-6.385-12.444-2.024-2.306-4.173-4.5-5.882-6.816-11.14-15.1-16.228-35.2-30-48C645.474,135.488,623.885,136.542,607.149,145.913Z" transform="translate(-553.218 -138.743)"/>
    </g>
    <g id="Group_17" data-name="Group 17" transform="translate(408.155 413.168)">
      <g id="Group_8" data-name="Group 8">
        <path id="Path_110" data-name="Path 110" class="cls-2" d="M592.5,230.86c.117-1.839,1.727-3.515,3.478-4.352,3.6-1.719,7.9-2.1,10.868-5.016a10.449,10.449,0,0,0,2.412-11.106c-2.089-5.443-8.021-6.936-13.354-6.1a3.7,3.7,0,0,1-2.036-.021,2.624,2.624,0,0,1-1.333-2.157c-.758-5.7.111-11.91-2.973-17.069-3.415-5.708-11.056-7.07-16.777-3.984-4.079,2.2-6.136,6.056-6.878,10.5-.491,2.949,1.45,11.038-1.934,12.782a3.548,3.548,0,0,1-1.852.256c-5.688-.355-10.828-.534-13.254,5.789a10.359,10.359,0,0,0,5.959,13.383l7.9,3.033a4.356,4.356,0,0,1,2.8,4.065c0,5.625-5.487,3.607-8.871,3.545-3.632-.065-6.407,3.335-7.566,6.46-3.007,8.117,3.208,13.746,10.039,16.853a49.777,49.777,0,0,0,27.355,3.842c7.685-1.078,19.95-4.217,22.836-12.6a12.167,12.167,0,0,0-.424-8.673,9.9,9.9,0,0,0-3.63-4.5c-2.742-1.744-6.361-.222-9.31-.959a4.472,4.472,0,0,1-3.348-2.921A3.292,3.292,0,0,1,592.5,230.86Z" transform="translate(-548.18 -179.445)"/>
      </g>
      <g id="Group_16" data-name="Group 16" transform="translate(21.576 20.084)">
        <g id="Group_11" data-name="Group 11" transform="translate(0 15.704)">
          <g id="Group_9" data-name="Group 9">
            <path id="Path_111" data-name="Path 111" class="cls-3" d="M571.731,207.039a.365.365,0,0,1-.112-.018l-8.572-2.619a.382.382,0,1,1,.222-.73l8.574,2.619a.382.382,0,0,1-.111.748Z" transform="translate(-562.776 -203.654)"/>
          </g>
          <g id="Group_10" data-name="Group 10" transform="translate(0 28.306)">
            <path id="Path_112" data-name="Path 112" class="cls-3" d="M571.731,226.187a.365.365,0,0,1-.112-.018l-8.572-2.619a.382.382,0,0,1,.222-.73l8.574,2.619a.382.382,0,0,1-.111.748Z" transform="translate(-562.776 -222.802)"/>
          </g>
        </g>
        <g id="Group_14" data-name="Group 14" transform="translate(9.267 15.704)">
          <g id="Group_12" data-name="Group 12">
            <path id="Path_113" data-name="Path 113" class="cls-3" d="M569.427,207.039a.382.382,0,0,1-.111-.748l8.574-2.619a.382.382,0,1,1,.222.73l-8.572,2.619A.366.366,0,0,1,569.427,207.039Z" transform="translate(-569.044 -203.655)"/>
          </g>
          <g id="Group_13" data-name="Group 13" transform="translate(0 28.306)">
            <path id="Path_114" data-name="Path 114" class="cls-3" d="M569.427,226.187a.382.382,0,0,1-.111-.748l8.574-2.619a.382.382,0,0,1,.222.73l-8.572,2.619A.373.373,0,0,1,569.427,226.187Z" transform="translate(-569.044 -222.803)"/>
          </g>
        </g>
        <g id="Group_15" data-name="Group 15" transform="translate(9.269)">
          <path id="Path_115" data-name="Path 115" class="cls-3" d="M569.426,255.191a.381.381,0,0,1-.38-.383V193.414a.381.381,0,1,1,.761,0v61.395A.382.382,0,0,1,569.426,255.191Z" transform="translate(-569.046 -193.031)"/>
        </g>
      </g>
    </g>
    <g id="Group_23" data-name="Group 23" transform="translate(484.653 388.331)">
      <g id="Group_18" data-name="Group 18">
        <path id="Path_116" data-name="Path 116" class="cls-3" d="M668.572,266.313H608.1a8.165,8.165,0,0,1-8.139-8.828l7.09-87.336a8.167,8.167,0,0,1,8.141-7.505h58.771a8.166,8.166,0,0,1,8.151,8.668l-5.385,87.336A8.167,8.167,0,0,1,668.572,266.313Z" transform="translate(-599.928 -162.643)"/>
      </g>
      <g id="favorite-5button" transform="translate(25.799 43.456)">
        <g id="favorite" transform="translate(0 0)">
          <path id="Path_131" data-name="Path 131" class="cls-4" d="M15.439,48.808l-2.161-2.161C5.249,39.545,0,34.758,0,28.892A8.371,8.371,0,0,1,8.492,20.4a9.278,9.278,0,0,1,6.948,3.242A9.278,9.278,0,0,1,22.387,20.4a8.371,8.371,0,0,1,8.492,8.492c0,5.867-5.249,10.653-13.278,17.755Z" transform="translate(0 -20.4)"/>
        </g>
      </g>
    </g>
    <g id="Group_41" data-name="Group 41" transform="translate(427.302 388.994)">
      <g id="Group_28" data-name="Group 28" transform="translate(48.159 62.017)">
        <g id="Group_27" data-name="Group 27">
          <g id="Group_25" data-name="Group 25" transform="translate(0 0.115)">
            <g id="Group_24" data-name="Group 24">
              <path id="Path_120" data-name="Path 120" class="cls-5" d="M604.339,211.465c2.723.188,16.576.5,22.082-1.486,2.479-.891,8.42-5.06,11.7-4.849,2.791.179,3.122,6.322,1.54,7.555-4.209,3.277-7.443,2.149-12.682,3.608-6.656,1.854-12.912,4.828-20.809,6.563-4.132.909-12.973,1.106-12.438-6.782C593.9,213.638,598.109,211.038,604.339,211.465Z" transform="translate(-593.71 -205.123)"/>
            </g>
          </g>
          <g id="Group_26" data-name="Group 26" transform="translate(43.447)">
            <path id="Path_121" data-name="Path 121" class="cls-5" d="M623.926,205.076c1.119-.143,5.892.154,5,2.034-.438.925-4.794.948-5.484.229S623.214,205.166,623.926,205.076Z" transform="translate(-623.101 -205.045)"/>
          </g>
        </g>
      </g>
      <g id="Group_29" data-name="Group 29" transform="translate(22.191 43.454)">
        <path id="Path_122" data-name="Path 122" class="cls-6" d="M576.224,255.525c.194,1.032,6.389,7.857,29.8,6.448,2.408-.145,6.661-20.821,8.252-27.314,2.2-8.992,4.772-10.209.022-18.873-3.057-5.574-9.876-12.392-15.17-17.7-2.179-2.188-9.409-5.072-13.357-5.557-6.151-.755-8.126,9.855-8.9,15.582-1.135,8.41.9,18.527,1.54,27.379.273,3.778.8,7.991.245,11.909C578.274,250.139,575.655,252.494,576.224,255.525Z" transform="translate(-576.143 -192.487)"/>
      </g>
      <g id="Group_30" data-name="Group 30" transform="translate(29.614 28.221)">
        <path id="Path_123" data-name="Path 123" class="cls-5" d="M599.835,191.976c-.089,1.972-.609.982-1.271,3.226-.414,1.4-1.02,5.941-1.523,7.907-1.734.968-4.56.695-6.472.208-3.667-.934-6.951-3.517-9.4-6.4,1-3.187-.025-6.624,1-9.808s7.99-5.81,11.158-4.646C596.9,183.777,597.392,189.46,599.835,191.976Z" transform="translate(-581.165 -182.183)"/>
      </g>
      <g id="Group_31" data-name="Group 31" transform="translate(34.245 28.119)">
        <path id="Path_124" data-name="Path 124" class="cls-7" d="M591.778,182.377c-1.861-.934-5.4.872-7.317,1.427a11.043,11.043,0,0,0-.1,2.857c.841,5.75,3.861,10.561,9.121,13.22a3.2,3.2,0,0,0,2.693.03c.161-1.053.68-4.141.894-4.764.618-1.8,1.2-1.434,1.268-3.1C595.806,189.159,595.536,184.263,591.778,182.377Z" transform="translate(-584.297 -182.114)"/>
      </g>
      <g id="Group_32" data-name="Group 32" transform="translate(38.315 15.193)">
        <path id="Path_125" data-name="Path 125" class="cls-5" d="M599.669,175.1c2.256,4.151,2.546,10.955,2.55,15.294,0,3.938-.346,14.407-5.616,12.623-4.46-1.511-8.658-8.308-9.461-13.2-.64-3.9,2.206-7.669,4.191-11.043,1.217-2.065,3.123-5.509,6.008-5.4A2.742,2.742,0,0,1,599.669,175.1Z" transform="translate(-587.051 -173.369)"/>
      </g>
      <g id="Group_33" data-name="Group 33">
        <path id="Path_126" data-name="Path 126" class="cls-4" d="M569.911,205.714c1.977-.835,3.641-1.032,5.282.636,1.409,1.431,1.766,3.585,2.977,5.183,1.375,1.818,3.477,3.462,5.861,2.39,3.545-1.594,3.774-6.144,8.259-4.033,2.3,1.084,4.475,4.244,7.27,2.718,2.423-1.322,1.425-5.085.6-7.573-.909-2.748-2.315-6.645.664-8.813a22.31,22.31,0,0,1,2.313-1.053c3.076-1.774,3.676-4.9,5.566-7.721a4.961,4.961,0,0,1,3.518-2.219c1.951-.167,2.858,1.832,4.648,2.021,4.362.461,6.3-4.419,6.193-8.052s-3.394-3.611-6.086-4c-5.931-.849-3.867-6.519-7.586-10-1.472-1.378-3.4-1.44-5.223-1.177-2.435.35-4.519,1.866-7.062,1.376-2.275-.438-4.182-2.285-6.538-2.306-3.876-.033-4.761,2.807-5.7,6.116-1.376,4.868-2.257,7.041-7.9,6.566-2.618-.22-6-.874-7,2.371-.72,2.337.928,4.43-.31,6.815-1.486,2.854-4.849,4.732-6.93,7.255-.919,1.116-2.046,2.664-1.412,4.1,1.013,2.3,4.962,1.268,5.239,4.025.2,1.979-2.956,4.3-.387,5.867C567.419,206.972,568.636,206.254,569.911,205.714Z" transform="translate(-561.132 -163.092)"/>
      </g>
      <g id="Group_34" data-name="Group 34" transform="translate(27.107 56.335)">
        <path id="Path_127" data-name="Path 127" class="cls-8" d="M608.682,247.248c.955-3.605,1.88-7.567,2.65-10.912-.636-.109-1.249-.189-1.763-.285-3.508-.652-7.01-1.495-10.479-2.33-6.154-1.483-8.2-3.676-10.046-9.566-1.774-5.657-2.526-12.292-4.912-17.7-.466-1.054-2.433-6.515-3.638-4.988-2.293,10.136-.183,37.749.98,42.681,1.969,8.355,10.889,7.232,18.038,5.614A79.945,79.945,0,0,0,608.682,247.248Z" transform="translate(-579.469 -201.201)"/>
      </g>
      <g id="Group_40" data-name="Group 40" transform="translate(25.672 52.799)">
        <g id="Group_36" data-name="Group 36">
          <g id="Group_35" data-name="Group 35">
            <path id="Path_128" data-name="Path 128" class="cls-5" d="M578.785,201.112c-.512,1.018-.214,1.818-.052,2.891.2,1.344.507,2.677.8,4.115.6,2.891,1.243,5.765,1.848,8.756.979,4.844,1.981,13.022,3.348,17.76,3.475,12.051,8.24,4.46,8.674,3.333a23.571,23.571,0,0,0,1.2-10.763c-.424-5.434-1.994-10.524-2.84-15.729-.611-3.756-1.694-8.546-4.155-10.81-3.032-2.791-5.428-1.96-7.993-.587C578.756,200.541,579,200.677,578.785,201.112Z" transform="translate(-578.498 -198.809)"/>
          </g>
        </g>
        <g id="Group_38" data-name="Group 38" transform="translate(7.533 30.925)">
          <g id="Group_37" data-name="Group 37">
            <path id="Path_129" data-name="Path 129" class="cls-5" d="M595.619,220.457c2.757.713,15.74,3.011,21.275,2.807,2.492-.092,9.767-1.434,12.3-.708,2.158.619,9.246,7.912,7.175,8.974-5.512,2.826-11.934-.9-18.281-.822-8.067.1-16.035.717-25.09,1.461-4.738.389-12.03-.52-8.45-9.357C585.657,220.082,589.315,218.824,595.619,220.457Z" transform="translate(-583.594 -219.73)"/>
          </g>
        </g>
        <g id="Group_39" data-name="Group 39" transform="translate(0.001 0.004)">
          <path id="Path_130" data-name="Path 130" class="cls-6" d="M593.014,217.544c-.392-1.941-.974-4.135-1.261-6.086-.535-3.653-1.7-8.568-4.144-10.8-3.005-2.753-5.437-1.972-7.99-.581-.859.47-.616.6-.835,1.033-.513,1.017-.21,1.827-.052,2.891.2,1.333.519,2.7.8,4.112.566,2.844,1.3,5.864,1.835,8.725.182.973.367,2.311.6,3.245,1.548-.268,3.453-1.214,4.9-1.545A58.121,58.121,0,0,1,593.014,217.544Z" transform="translate(-578.499 -198.812)"/>
        </g>
      </g>
    </g>
  </g>
</svg>
