<svg xmlns="http://www.w3.org/2000/svg" width="195.389" height="216.258" viewBox="0 0 195.389 216.258">
  <defs>
    <style>
      .cls-1 {
        fill: #8aa9fc;
      }

      .cls-2 {
        fill: #e3707f;
      }

      .cls-3 {
        fill: #edc483;
      }

      .cls-4 {
        fill: #e8947e;
      }

      .cls-5 {
        fill: #251a51;
      }

      .cls-6 {
        fill: #f6aea6;
      }

      .cls-7 {
        fill: #1a3066;
      }

      .cls-13, .cls-16, .cls-8 {
        fill: none;
        stroke-miterlimit: 10;
        stroke-width: 0.05px;
      }

      .cls-8 {
        stroke: #251a51;
      }

      .cls-9 {
        fill: #6338a1;
      }

      .cls-10 {
        fill: #fff;
        opacity: 0.41;
      }

      .cls-11 {
        fill: #ddd2f3;
      }

      .cls-12 {
        fill: #ffbb7d;
      }

      .cls-13 {
        stroke: #ffbb7d;
      }

      .cls-14 {
        fill: #6e3281;
      }

      .cls-15 {
        fill: #ede6f5;
      }

      .cls-16 {
        stroke: #fff;
      }
    </style>
  </defs>
  <g id="no-my-adds" transform="translate(-372.045 -312.738)">
    <g id="Group_322" data-name="Group 322" transform="translate(443.925 406.672)">
      <path id="Path_1176" data-name="Path 1176" class="cls-1" d="M590.379,215.882c-2.3,2.209-3.175,5.647-.982,8.3a6.438,6.438,0,0,0,8.642,1.036c6.227-4.807-.264-13.676-6.984-11.841a1.117,1.117,0,0,0,.294,2.184c1.966.111,4.069.187,5.639,1.563a4.087,4.087,0,0,1,.34,5.683c-3.662,4.5-10.026-2.128-6.177-6.155a.546.546,0,0,0-.771-.771Z" transform="translate(-588.132 -213.133)"/>
    </g>
    <g id="Group_323" data-name="Group 323" transform="translate(510.294 415.44)">
      <path id="Path_1177" data-name="Path 1177" class="cls-2" d="M633.492,220.711c.843,3.133,1.773,6.229,2.737,9.325a.977.977,0,0,0,1.577.545c2.518-1.71,5.036-3.392,7.419-5.284a.9.9,0,0,0-.1-1.408c-2.792-1.916-6.562-4.746-10.1-4.765-.9-.006-1.53,1.263-.616,1.79a39.022,39.022,0,0,0,4.67,1.752,25.6,25.6,0,0,1,5.063,2.7c.035-.514.069-1.028.1-1.541-2.664,1.641-5.173,3.479-7.707,5.312l1.5.3c-1.08-3.058-2.191-6.1-3.39-9.109a.615.615,0,0,0-1.152.381Z" transform="translate(-633.472 -219.123)"/>
    </g>
    <g id="Group_324" data-name="Group 324" transform="translate(527.008 425.252)">
      <path id="Path_1178" data-name="Path 1178" class="cls-3" d="M645.866,234.191a72.917,72.917,0,0,0,10.941-6.271,1.164,1.164,0,0,0-1.287-1.938,71.728,71.728,0,0,0-10.33,6.813c-.646.5-.171,1.8.676,1.4Z" transform="translate(-644.89 -225.826)"/>
    </g>
    <g id="Group_325" data-name="Group 325" transform="translate(384.642 432.108)">
      <path id="Path_1179" data-name="Path 1179" class="cls-4" d="M553.156,243.451a73.042,73.042,0,0,0-3.283-12.175,1.164,1.164,0,0,0-2.2.751,71.656,71.656,0,0,0,3.963,11.724c.319.751,1.7.622,1.522-.3Z" transform="translate(-547.634 -230.509)"/>
    </g>
    <g id="Group_326" data-name="Group 326" transform="translate(397.71 408.128)">
      <path id="Path_1180" data-name="Path 1180" class="cls-5" d="M560.79,214.992l-.209-.187a2.368,2.368,0,1,0-3.349,3.348l.187.211a2.384,2.384,0,0,0,3.371-3.371Z" transform="translate(-556.561 -214.128)"/>
    </g>
    <g id="Group_334" data-name="Group 334" transform="translate(379.05 365.422)">
      <g id="Group_331" data-name="Group 331" transform="translate(25.845 56.862)">
        <path id="Path_1181" data-name="Path 1181" class="cls-2" d="M645.04,314.954s-39.324,9.147-55.12-6.649l5.653-37.729c1.717-10.845.694-31.711,9-39.113a14.28,14.28,0,0,1,3.153-2.146c5.826-2.813,16.191-4.333,26.142-4.371,12.09-.047,24.532,9.095,27.706,20.76L648.49,276.312Z" transform="translate(-548.274 -223.265)"/>
        <g id="Group_327" data-name="Group 327" transform="translate(54.805 22.442)">
          <path id="Path_1182" data-name="Path 1182" class="cls-6" d="M636.983,243.829s17.616,33.931,8.868,35.738c-28.774,5.945-45.475,10.819-45.475,10.819l-1.467,11.175c.429,1.688,58.215.227,65.059-7.536,4.832-5.482,11.257-18.15-2.411-45.569l-4.153-9.327Z" transform="translate(-598.909 -239.129)"/>
        </g>
        <path id="Path_1183" data-name="Path 1183" class="cls-6" d="M621.267,233.462,577.394,250.45l-1.375-23.019-9.393-3.633s-13.621,36.945,3.414,43.824,36.228-5.832,36.228-5.832Z" transform="translate(-561.47 -223.798)"/>
        <path id="Path_1184" data-name="Path 1184" class="cls-2" d="M620.6,226.547c-15.315,4.879-24.447,10.6-46,19.589l11.069,24.686L604.75,264.7Z" transform="translate(-555.379 -222.523)"/>
        <path id="Path_1185" data-name="Path 1185" class="cls-2" d="M623.339,241.615l11.128,25.857,25.1-4.583-16.909-29.121-20.02,7.846" transform="translate(-533.099 -219.173)"/>
        <g id="Group_328" data-name="Group 328" transform="translate(76.806 38.991)">
          <path id="Path_1186" data-name="Path 1186" class="cls-7" d="M614.241,251.514c5.346-.3,10.624-.066,15.966,0,.467.006.439-.654,0-.707a78.647,78.647,0,0,0-15.966.076c-.4.034-.407.648,0,.626Z" transform="translate(-613.939 -250.434)"/>
        </g>
        <g id="Group_329" data-name="Group 329" transform="translate(91.534 10.079)">
          <path id="Path_1187" data-name="Path 1187" class="cls-7" d="M633.517,230.684c-18.061,1.631-5.709,28.259-1.08,36.322a.4.4,0,0,0,.7-.407c-4.6-8.145-16.912-32.924.443-35.474.249-.037.192-.464-.059-.441Z" transform="translate(-624.001 -230.683)"/>
        </g>
        <g id="Group_330" data-name="Group 330" transform="translate(46.73 25.135)">
          <path id="Path_1188" data-name="Path 1188" class="cls-7" d="M597.66,241.138a149.733,149.733,0,0,0-4.267,27.221c-.023.378.615.474.669.091,1.293-9.08,2.592-18.134,4.047-27.189.047-.288-.375-.422-.449-.123Z" transform="translate(-593.393 -240.969)"/>
        </g>
      </g>
      <g id="Group_332" data-name="Group 332" transform="translate(81.226)">
        <path id="Path_1189" data-name="Path 1189" class="cls-5" d="M637.19,217.93l.828-11.438c3-.845,4.555-4.68,3.359-7.555a7.3,7.3,0,0,0-7.676-4.049c1.945-1.325,1.8-4.487.2-6.217s-4.1-2.289-6.45-2.379-4.733.193-7.047-.236c-2.049-.381-4.058-1.319-6.128-1.058s-4.045,2.588-2.931,4.35c-2.983-.439-6.211-.837-8.862.6s-3.982,5.533-1.7,7.509a3.247,3.247,0,0,0-1.035,4.408,5.3,5.3,0,0,0,4.263,2.351,15.642,15.642,0,0,0,4.992-.729" transform="translate(-599.303 -184.953)"/>
        <path id="Path_1190" data-name="Path 1190" class="cls-6" d="M634.65,206.842l-.6,7.927s6.739.909,4.819,7.056-6.531,3.458-6.531,3.458-1.152,15.752-17.288,10.758c-12.844-3.974-12.057-20.6-10.427-34.782a9.491,9.491,0,0,1,11.252-8.211l9.7,1.89A11.259,11.259,0,0,1,634.65,206.842Z" transform="translate(-597.25 -181.281)"/>
        <path id="Path_1191" data-name="Path 1191" class="cls-6" d="M631.662,212.324l-4.347,23.185a9.3,9.3,0,0,1-11.3,7.332h0a9.3,9.3,0,0,1-7-10.673l2.36-13.289Z" transform="translate(-594.864 -172.258)"/>
        <path id="Path_1192" data-name="Path 1192" class="cls-8" d="M611.782,202.859q-.356,5.7-.714,11.4a5.315,5.315,0,0,0,.237,2.481c.329.713,1.19.956,1.508.233" transform="translate(-593.862 -176.648)"/>
        <path id="Path_1193" data-name="Path 1193" class="cls-8" d="M624.035,221.58a13.093,13.093,0,0,1-15.363-.324" transform="translate(-594.957 -168.115)"/>
        <path id="Path_1194" data-name="Path 1194" class="cls-8" d="M617.388,213.284a3.736,3.736,0,0,1-6.562,2.109" transform="translate(-593.958 -171.813)"/>
        <path id="Path_1195" data-name="Path 1195" class="cls-8" d="M626.139,210.421l-.975,2.2a.749.749,0,0,1,1.211.059,1.083,1.083,0,0,1-.246,1.313,2.015,2.015,0,0,1-1.341.463" transform="translate(-587.482 -173.141)"/>
        <path id="Path_1196" data-name="Path 1196" class="cls-8" d="M619.542,203.386a3.551,3.551,0,0,0-3.242-.852" transform="translate(-591.419 -176.845)"/>
        <path id="Path_1197" data-name="Path 1197" class="cls-8" d="M610.457,201.4a4.4,4.4,0,0,0-3.687-.322" transform="translate(-595.839 -177.597)"/>
        <path id="Path_1198" data-name="Path 1198" class="cls-5" d="M634.12,216.116c-4.5-4.39-5.827-11.706-7.05-17.876a15.767,15.767,0,0,1-14.717,1.916,23.767,23.767,0,0,1-5.243,4.582,2.342,2.342,0,0,1-1.852.512c-.757-.228-1.094-1.095-1.272-1.863a13.238,13.238,0,0,1,.261-7.471,9,9,0,0,1,5.015-5.377c2.519-.975,5.353-.55,7.969.127a44.2,44.2,0,0,1,11.248,4.648c3.446,2.019,6.757,4.69,8.219,8.407s1.455,10.941-2.07,12.82" transform="translate(-597.321 -182.628)"/>
        <path id="Path_1199" data-name="Path 1199" class="cls-8" d="M617.305,205.25q-.086,1.216-.174,2.434" transform="translate(-591.033 -175.539)"/>
        <path id="Path_1200" data-name="Path 1200" class="cls-8" d="M608.454,204.12q-.088,1.219-.174,2.434" transform="translate(-595.139 -176.063)"/>
      </g>
      <path id="Path_1201" data-name="Path 1201" class="cls-6" d="M564.667,231.169s1.948-11.968,4.277-11.838,6.985,0,6.985,0,.388-11.383,1.68-9.57,1.7,17.124-3.289,24.472Z" transform="translate(-534.141 -173.539)"/>
      <path id="Path_1202" data-name="Path 1202" class="cls-6" d="M606.4,274.145s-20.877,3.654-20.47,6.363a19.606,19.606,0,0,0,1.875,5.44l18.595-.438Z" transform="translate(-524.283 -143.584)"/>
      <g id="Group_333" data-name="Group 333" transform="translate(0 98.925)">
        <path id="Path_1203" data-name="Path 1203" class="cls-9" d="M648.59,296.629l-.159-2.89-43-2.63L591.01,252.533l-47.2,2.595,16.1,41.714Z" transform="translate(-543.814 -252.533)"/>
        <path id="Path_1204" data-name="Path 1204" class="cls-10" d="M561.592,268.024a3.5,3.5,0,1,0,3.3-3.686A3.5,3.5,0,0,0,561.592,268.024Z" transform="translate(-535.57 -247.061)"/>
        <path id="Path_1205" data-name="Path 1205" class="cls-10" d="M560.637,268.543a4.9,4.9,0,1,0,4.623-5.16A4.9,4.9,0,0,0,560.637,268.543Z" transform="translate(-536.014 -247.504)"/>
      </g>
    </g>
    <path id="Path_1206" data-name="Path 1206" class="cls-11" d="M539.028,283.97l184.579-2.3,10.81,5.677S592.719,326.233,539.028,283.97Z" transform="translate(-166.983 225.326)"/>
    <path id="Path_1207" data-name="Path 1207" class="cls-11" d="M637.695,190.271c-.559,1.085,1.269,29.107,1.269,29.107l13.8-1.146-1.609,7.4,6.742-7.6,13.5-1.56-.821-27.161Z" transform="translate(-121.269 182.487)"/>
    <g id="Group_339" data-name="Group 339" transform="translate(471.548 329.061)">
      <path id="Path_1208" data-name="Path 1208" class="cls-12" d="M616.828,160.154s-9.508.476-9.825,10.619c0,0,.16,5.546,3.169,7.606s2.853,4.279,2.853,4.279h7.924s-.316-2.852.951-4.437,4.437-4.913,3.963-9.825S621.742,159.678,616.828,160.154Z" transform="translate(-607.003 -160.114)"/>
      <g id="Group_335" data-name="Group 335" transform="translate(5.544 23.983)">
        <path id="Path_1209" data-name="Path 1209" class="cls-9" d="M611.116,177.547c2.846-.132,5.724.18,8.549.016.408-.023.546-.659.1-.751a28.574,28.574,0,0,0-8.651.057c-.423.048-.445.7,0,.678Z" transform="translate(-610.791 -176.497)"/>
      </g>
      <g id="Group_336" data-name="Group 336" transform="translate(6.644 26.473)">
        <path id="Path_1210" data-name="Path 1210" class="cls-9" d="M611.874,179.243c1.135-.066,2.273-.113,3.411-.1s2.286.2,3.411.117a.384.384,0,0,0,.1-.751,18.862,18.862,0,0,0-7.012.069c-.378.054-.29.688.089.666Z" transform="translate(-611.542 -178.198)"/>
      </g>
      <g id="Group_337" data-name="Group 337" transform="translate(7.583 28.631)">
        <path id="Path_1211" data-name="Path 1211" class="cls-9" d="M612.511,180.4c.994.069,2.02.35,3.01.328a.434.434,0,0,0,.114-.849,9.587,9.587,0,0,0-3.124-.157.339.339,0,0,0,0,.678Z" transform="translate(-612.183 -179.673)"/>
      </g>
      <g id="Group_338" data-name="Group 338" transform="translate(6.269 13.195)">
        <path id="Path_1212" data-name="Path 1212" class="cls-9" d="M613.378,178.368c.219-2.819-.73-5.94-1.212-8.705l-.829.348c.4.654,1.061,2.543,2.079,2.475,1.051-.07,1.44-1.944,1.59-2.708H614.1c.2.869.228,2.97,1.6,2.772,1.158-.168,1.938-1.888,2.294-2.83l-.944-.261a19.708,19.708,0,0,0-.334,9.029.462.462,0,0,0,.9-.121c-.085-2.923-.495-5.782.375-8.647.186-.615-.719-.833-.944-.261-.127.325-.875,2.175-1.584,1.938a7.723,7.723,0,0,1-.454-1.871.474.474,0,0,0-.908,0c-.1.566-.338,2.109-1.007,1.648-.386-.266-.728-1.215-.97-1.622a.456.456,0,0,0-.829.348c.438,2.768.558,5.99,1.669,8.578.1.224.4.082.417-.113Z" transform="translate(-611.286 -169.128)"/>
      </g>
    </g>
    <path id="Path_1213" data-name="Path 1213" class="cls-13" d="M593.53,174.1l12.731-4.075" transform="translate(-141.704 173.545)"/>
    <path id="Path_1214" data-name="Path 1214" class="cls-13" d="M597.141,164.247l8.07-.212" transform="translate(-140.029 170.767)"/>
    <path id="Path_1215" data-name="Path 1215" class="cls-13" d="M608.617,163.921l-9.263-7.745" transform="translate(-139.003 167.121)"/>
    <path id="Path_1216" data-name="Path 1216" class="cls-13" d="M611.22,159.954q-1.381-2.231-2.761-4.46" transform="translate(-134.78 166.805)"/>
    <path id="Path_1217" data-name="Path 1217" class="cls-13" d="M614.592,161.281l-.25-12.318" transform="translate(-132.051 163.776)"/>
    <path id="Path_1218" data-name="Path 1218" class="cls-13" d="M617.8,160.06l2.737-4.686" transform="translate(-130.445 166.749)"/>
    <path id="Path_1219" data-name="Path 1219" class="cls-13" d="M620.453,162.764l11.217-6.275" transform="translate(-129.217 167.267)"/>
    <path id="Path_1220" data-name="Path 1220" class="cls-13" d="M622.389,164.638a8.524,8.524,0,0,0,4.716-.959" transform="translate(-128.319 170.601)"/>
    <path id="Path_1221" data-name="Path 1221" class="cls-13" d="M622.822,169.282q8.62,1.82,17.242,3.638" transform="translate(-128.118 173.2)"/>
    <g id="Group_340" data-name="Group 340" transform="translate(411.811 429.602)">
      <path id="Path_1222" data-name="Path 1222" class="cls-14" d="M568.4,241.439a8.418,8.418,0,0,1,.856-3.556c1.4-2.2,3.387-1.65,5.312-.681,1.962.988,3.809,1.579,5.94.657,3.33-1.442,4.894-6.464,1.716-8.827-1.029-.766-2.042.5-1.9,1.465.192,1.351.862,2.838-.294,4-1.549,1.553-3.364.249-4.908-.448a6.413,6.413,0,0,0-5.161-.222c-2.964,1.2-5.113,5.217-2.761,7.93a.724.724,0,0,0,1.2-.318Z" transform="translate(-566.194 -228.797)"/>
    </g>
    <g id="Group_341" data-name="Group 341" transform="translate(437.899 447.248)">
      <path id="Path_1223" data-name="Path 1223" class="cls-15" d="M584.036,242.442c.843,3.131,1.771,6.227,2.737,9.323a.977.977,0,0,0,1.576.545c2.516-1.71,5.034-3.392,7.419-5.284a.9.9,0,0,0-.1-1.408c-2.791-1.916-6.562-4.746-10.1-4.765-.9-.006-1.531,1.263-.616,1.79a38.939,38.939,0,0,0,4.67,1.752,25.6,25.6,0,0,1,5.063,2.7c.035-.514.069-1.028.1-1.541-2.664,1.641-5.173,3.479-7.707,5.314l1.5.3c-1.082-3.058-2.191-6.1-3.39-9.109a.615.615,0,0,0-1.152.382Z" transform="translate(-584.016 -240.852)"/>
    </g>
    <g id="Group_342" data-name="Group 342" transform="translate(442.818 477.889)">
      <path id="Path_1224" data-name="Path 1224" class="cls-14" d="M587.981,264.076a74.157,74.157,0,0,0,12.608.022,1.14,1.14,0,0,0-.142-2.276,72.987,72.987,0,0,0-12.353.738c-.808.108-1.05,1.446-.113,1.517Z" transform="translate(-587.376 -261.784)"/>
    </g>
    <g id="Group_344" data-name="Group 344" transform="translate(381.748 366.414)">
      <path id="Path_1225" data-name="Path 1225" class="cls-11" d="M545.657,185.631,548,213.568h51.447l2.848,9.83,3-10.78,9.8-.569-4.52-25.023Z" transform="translate(-545.657 -185.631)"/>
      <g id="Group_343" data-name="Group 343" transform="translate(6.753 9.334)">
        <path id="Path_1226" data-name="Path 1226" class="cls-16" d="M550.27,192.582a371.18,371.18,0,0,1,53.065.843" transform="translate(-550.27 -192.007)"/>
        <path id="Path_1227" data-name="Path 1227" class="cls-16" d="M550.976,196.349a371.389,371.389,0,0,1,53.065.843" transform="translate(-549.943 -190.26)"/>
        <path id="Path_1228" data-name="Path 1228" class="cls-16" d="M551.042,199.373c18.807.534,16.892-1.011,35.558.534" transform="translate(-549.912 -188.672)"/>
      </g>
    </g>
  </g>
</svg>
