<svg xmlns="http://www.w3.org/2000/svg" width="231.096" height="212.996" viewBox="0 0 231.096 212.996">
  <g id="Symbol_49_1" data-name="Symbol 49 – 1" transform="translate(-383 -356)">
    <g id="Symbol_53_1" data-name="Symbol 53 – 1">
      <path id="Path_1326" data-name="Path 1326" d="M129.957,366.035c-28.31-9.544-52.863-33.263-57.891-62.713s13.545-62.643,42.73-69.028c13.8-3.019,28.693-.323,41.878-5.392,24.865-9.561,33.315-41.907,56.286-55.4,22.133-13,52.478-3.624,68.966,16.047s21.3,46.813,20.289,72.461c-1.485,37.68-17.5,78.318-51.673,94.251-28.8,13.425-89.7,17.23-120.584,9.771" transform="translate(311.753 188.495)" fill="#ddd2f3" opacity="0.54"/>
      <path id="Path_1327" data-name="Path 1327" d="M87.971,298.111c6.259,9.947,19.15,13.679,30.9,13.442s23.237-3.6,34.969-4.278c18.594-1.079,36.816,4.577,55.093,8.156s38.255,4.859,54.556-4.151c3.989-2.206,7.84-5.219,9.456-9.482s.155-9.924-4.05-11.686a14.055,14.055,0,0,0-5.208-.756q-58.736-1.091-117.474-2.179c-19.931-.37-41.9-.03-56.858,13.154" transform="translate(320.475 250.855)" fill="#b8abd6"/>
      <g id="Group_502" data-name="Group 502" transform="translate(389.693 382.347)">
        <g id="Group_372" data-name="Group 372" transform="translate(3.043 3.043)" opacity="0.15">
          <path id="Path_1328" data-name="Path 1328" d="M198.616,218.02c-2.39,2.3-3.3,5.87-1.019,8.628a6.691,6.691,0,0,0,8.983,1.077c6.472-5-.275-14.215-7.26-12.305a1.16,1.16,0,0,0,.307,2.268c2.043.117,4.228.195,5.861,1.626a4.246,4.246,0,0,1,.353,5.9c-3.808,4.682-10.42-2.212-6.422-6.4a.567.567,0,0,0-.8-.8Z" transform="translate(-15.783 -172.044)" fill="#3d3d3d"/>
          <path id="Path_1329" data-name="Path 1329" d="M104.716,202.345a7.773,7.773,0,0,0-10.968,7.4c.084,2.06.905,4.406-.4,6-1.013,1.231-2.821,1.346-4.272,2a6,6,0,0,0-2.879,7.654c.679,1.493,2.025,2.866,1.768,4.487a3.619,3.619,0,0,1-1.919,2.4c-.92.528-1.954.828-2.906,1.295a10.407,10.407,0,0,0-5.486,9.52,13.345,13.345,0,0,0,5.279,9.915A18.74,18.74,0,0,0,93.74,256.7c3.875.145,7.928-.764,10.886-3.273a17.88,17.88,0,0,0,4.736-7.227,36.169,36.169,0,0,0,2.386-16.279c-.488-5.719-2.337-11.263-2.74-16.99a37.585,37.585,0,0,0-.537-5.739,7.293,7.293,0,0,0-3.032-4.727" transform="translate(-77.646 -179.078)" fill="#3d3d3d"/>
          <path id="Path_1330" data-name="Path 1330" d="M95.326,205.859a17.114,17.114,0,0,1,11.539-9.145,12.5,12.5,0,0,1,9.066,1.155,8.254,8.254,0,0,1,4.119,7.826c-.253,1.914-1.289,3.62-1.947,5.435s-.876,4.026.348,5.518c1.1,1.339,2.984,1.668,4.482,2.535a6.722,6.722,0,0,1-.689,11.989,8.079,8.079,0,0,1,6.935,9.868c-.742,3.168-3.317,5.593-6.084,7.3a26.831,26.831,0,0,1-12.827,3.962c-4.8.216-10.107-1.2-12.715-5.232-1.713-2.647-1.975-5.947-2.167-9.1-.578-9.5-.977-19-1.374-28.509a16.474,16.474,0,0,1,.234-4.572" transform="translate(-69.137 -181.851)" fill="#3d3d3d"/>
          <path id="Path_1331" data-name="Path 1331" d="M105.464,232.2l42.993,16.118-4.1-17.363,11.183-2.841s12.027,33.94,3.674,34.849c-14.623,1.591-36.749-4.2-36.749-4.2Z" transform="translate(-63.14 -165.288)" fill="#3d3d3d"/>
          <path id="Path_1332" data-name="Path 1332" d="M102.993,295.29S154.935,238.6,190,250.975,239.87,321.1,239.87,321.1l-27.929-.452s-22.058-43.612-32.821-41.923-44,43.2-44,43.2Z" transform="translate(-64.428 -154.292)" fill="#3d3d3d"/>
          <path id="Path_1333" data-name="Path 1333" d="M130.717,270.97l2.156,33.265C121.677,318,82.7,300.2,82.7,300.2l-.453-13.908-.905-33.123c.9-13.193,13.148-19.666,13.148-19.666,5.065-2.524,12.789-3.957,19.748-3.613,7.265.359,9.06,3.837,12.053,10.468C128.707,245.714,135.269,254.438,130.717,270.97Z" transform="translate(-75.719 -164.391)" fill="#3d3d3d"/>
          <path id="Path_1334" data-name="Path 1334" d="M87.342,280.929s-5.961,24.264,12.208,28.089,84.994-5.123,102.4-3.592,66.9,4.417,66.9,4.417l3.624-28.813s-77.028-3.693-85.735-1.529S87.342,280.929,87.342,280.929Z" transform="translate(-73.078 -138.85)" fill="#3d3d3d"/>
          <path id="Path_1335" data-name="Path 1335" d="M99.6,252.325s-5.448,32.106,2.235,31.316c25.273-2.6,40.321-2.95,40.321-2.95l4.189,8.7c.1,1.482-47.86,15.21-55.566,10.67-5.441-3.2-14.108-11.837-10.174-37.635l.93-8.646Z" transform="translate(-76.622 -152.666)" fill="#3d3d3d"/>
          <path id="Path_1336" data-name="Path 1336" d="M107.753,295.276l-.052-2.152,31.721-4.479,8.42-29.443,35.139-.853L173.5,290.218Z" transform="translate(-61.974 -149.525)" fill="#3d3d3d"/>
          <path id="Path_1337" data-name="Path 1337" d="M147,268.952a2.6,2.6,0,1,1-2.664-2.538A2.6,2.6,0,0,1,147,268.952Z" transform="translate(-44.197 -145.32)" fill="#3d3d3d"/>
          <path id="Path_1338" data-name="Path 1338" d="M148.394,269.284a3.643,3.643,0,1,1-3.731-3.554A3.644,3.644,0,0,1,148.394,269.284Z" transform="translate(-44.553 -145.677)" fill="#3d3d3d" opacity="0.41"/>
          <path id="Path_1339" data-name="Path 1339" d="M86.082,239.149s-5.894,5.66-7.213,27.08l22.816-2.526S105.487,227.224,86.082,239.149Z" transform="translate(-77.008 -160.786)" fill="#3d3d3d"/>
          <path id="Path_1340" data-name="Path 1340" d="M193.69,200.777s8.088,18.161,10.343,17.211,23.144-13.911,23.144-13.911-8.561-16.261-10.343-17.211S193.69,200.777,193.69,200.777Z" transform="translate(-17.135 -186.822)" fill="#3d3d3d"/>
          <path id="Path_1341" data-name="Path 1341" d="M216.834,186.851a32.729,32.729,0,0,1-1.538,4.882c-1.045,2.979-2.539,7.076-4.236,11.586l-.122.324-.114.3-.321-.053c-4.678-.762-8.891-1.491-11.93-2.057a31.46,31.46,0,0,1-4.884-1.076,31.545,31.545,0,0,1,4.974.528c3.061.424,7.288,1.065,11.968,1.823l-.435.253.123-.326c1.7-4.508,3.274-8.575,4.453-11.5A32.4,32.4,0,0,1,216.834,186.851Z" transform="translate(-17.135 -186.808)" fill="#3d3d3d"/>
          <path id="Path_1342" data-name="Path 1342" d="M198.755,210.4c-.213-.047.415-3.031,1.4-6.661s1.961-6.521,2.17-6.454-.42,3.051-1.4,6.662S198.968,210.446,198.755,210.4Z" transform="translate(-14.515 -181.368)" fill="#3d3d3d"/>
          <path id="Path_1343" data-name="Path 1343" d="M219.214,196.513c-.035.216-2.95-.065-6.51-.63s-6.421-1.2-6.387-1.413,2.949.067,6.51.631S219.248,196.3,219.214,196.513Z" transform="translate(-10.55 -182.872)" fill="#3d3d3d"/>
          <path id="Path_1344" data-name="Path 1344" d="M92.462,212.928l.516,6.8s-5.781.779-4.134,6.052,5.6,2.967,5.6,2.967.987,13.514,14.831,9.228c11.017-3.41,10.343-17.676,8.945-29.839a8.143,8.143,0,0,0-9.654-7.044l-8.322,1.622A9.658,9.658,0,0,0,92.462,212.928Z" transform="translate(-71.96 -179.461)" fill="#3d3d3d"/>
          <path id="Path_1345" data-name="Path 1345" d="M91.46,217l3.729,19.89a7.978,7.978,0,0,0,9.695,6.29h0a7.976,7.976,0,0,0,6-9.155l-2.024-11.4Z" transform="translate(-70.442 -171.087)" fill="#3d3d3d"/>
          <path id="Path_1346" data-name="Path 1346" d="M101.531,221.3c.053-.038.166.178.418.207s.622-.231.714-.771a7.018,7.018,0,0,0-.02-2.055l-.2-2.65c-.236-3.764-.25-6.825-.03-6.839s.586,3.025.822,6.79l.135,2.653a6.238,6.238,0,0,1-.172,2.261c-.184.686-.89,1.112-1.331.908C101.446,221.584,101.5,221.291,101.531,221.3Z" transform="translate(-65.201 -175.161)" fill="#3d3d3d"/>
          <path id="Path_1347" data-name="Path 1347" d="M108.995,224.376c.061.073-.49.68-1.626,1.334a10.5,10.5,0,0,1-9.873.208c-1.165-.606-1.739-1.188-1.681-1.266.1-.219,2.8,1.7,6.627,1.6C106.267,226.188,108.884,224.159,108.995,224.376Z" transform="translate(-68.174 -167.249)" fill="#3d3d3d"/>
          <path id="Path_1348" data-name="Path 1348" d="M104.666,219.6c.078.056-.1.5-.714.934a3.242,3.242,0,0,1-4.881-1.569c-.246-.709-.131-1.175-.037-1.175.12-.011.215.4.543.934a3.162,3.162,0,0,0,4.1,1.319C104.258,219.8,104.575,219.521,104.666,219.6Z" transform="translate(-66.55 -170.674)" fill="#3d3d3d"/>
          <path id="Path_1349" data-name="Path 1349" d="M91.809,218.887c0,.093-.338.257-.94.079a1.33,1.33,0,0,1-.831-.793,1.2,1.2,0,0,1-.035-.762,1.006,1.006,0,0,1,.613-.66.972.972,0,0,1,1.194.367l-.672.35c-.44-1.112-.653-1.967-.488-2.039s.654.659,1.184,1.731l-.672.35a.27.27,0,0,0-.263-.018c-.148.046-.215.221-.164.455a.851.851,0,0,0,.376.513C91.473,218.7,91.818,218.771,91.809,218.887Z" transform="translate(-71.226 -171.908)" fill="#3d3d3d"/>
          <path id="Path_1350" data-name="Path 1350" d="M105.409,212.176c-.213.049-.5-.4-.633-1s-.073-1.127.141-1.176.5.4.631,1S105.622,212.129,105.409,212.176Z" transform="translate(-63.536 -174.738)" fill="#3d3d3d"/>
          <path id="Path_1351" data-name="Path 1351" d="M97.734,212.894c-.21.058-.517-.382-.683-.983s-.132-1.137.079-1.2.517.382.683.983S97.946,212.835,97.734,212.894Z" transform="translate(-67.582 -174.366)" fill="#3d3d3d"/>
          <path id="Path_1352" data-name="Path 1352" d="M99.144,209.044c-.067.215-.689.207-1.381.4-.7.172-1.235.485-1.4.332-.169-.132.265-.854,1.2-1.1S99.227,208.845,99.144,209.044Z" transform="translate(-67.904 -175.466)" fill="#3d3d3d"/>
          <path id="Path_1353" data-name="Path 1353" d="M107.136,207.856c-.088.207-.774.1-1.578.184-.8.061-1.464.281-1.585.093-.131-.169.491-.8,1.517-.882S107.235,207.668,107.136,207.856Z" transform="translate(-63.926 -176.176)" fill="#3d3d3d"/>
          <path id="Path_1354" data-name="Path 1354" d="M92.488,220.978c3.863-3.767,5-10.043,6.048-15.336a13.53,13.53,0,0,0,12.627,1.643,20.342,20.342,0,0,0,4.5,3.93,2.016,2.016,0,0,0,1.59.441c.648-.2.936-.94,1.091-1.6a11.356,11.356,0,0,0-.225-6.41,7.719,7.719,0,0,0-4.3-4.613c-2.162-.837-4.593-.473-6.836.11a37.965,37.965,0,0,0-9.651,3.986c-2.956,1.733-5.8,4.024-7.05,7.213s-1.249,9.386,1.776,11" transform="translate(-71.47 -180.711)" fill="#3d3d3d"/>
          <path id="Path_1355" data-name="Path 1355" d="M102.96,220.159a1.654,1.654,0,1,1-3.034-.645c.6-.917,1.41-1.461,1.877-1.374C102.265,218.251,102.782,219.076,102.96,220.159Z" transform="translate(-66.171 -170.497)" fill="#3d3d3d"/>
          <path id="Path_1356" data-name="Path 1356" d="M100.774,215.888c.193,1.073-1.133,2.208-2.982,2.29s-3.273-.925-3.178-2.01,1.436-1.873,3-1.947S100.582,214.806,100.774,215.888Z" transform="translate(-68.8 -172.538)" fill="#3d3d3d"/>
          <path id="Path_1357" data-name="Path 1357" d="M110.154,215.1c.216,1.068-.943,2.2-2.618,2.29s-2.944-.927-2.838-2.01a2.966,2.966,0,0,1,5.456-.28Z" transform="translate(-63.543 -172.947)" fill="#3d3d3d"/>
          <path id="Path_1358" data-name="Path 1358" d="M91.571,228.463c-.222-.006-.344-2.186-.485-4.866s-.237-4.863-.015-4.891.669,2.136.806,4.85S91.786,228.469,91.571,228.463Z" transform="translate(-70.713 -170.197)" fill="#3d3d3d"/>
          <path id="Path_1359" data-name="Path 1359" d="M106.568,230.758c-3.743-1.486,25.034,9.2,25.034,9.2l-2.92,19.684-10.945-3.591Z" transform="translate(-62.739 -163.986)" fill="#3d3d3d"/>
          <path id="Path_1360" data-name="Path 1360" d="M97,203.972a5.97,5.97,0,0,0,.8-4.707,3.285,3.285,0,0,0-2.667-2.675,2.931,2.931,0,0,0-2.072.855,4.259,4.259,0,0,0,4.049,7.224" transform="translate(-70.301 -181.731)" fill="#3d3d3d"/>
          <path id="Path_1361" data-name="Path 1361" d="M209.031,287.553s9.36-13.419,8.219-8.339-10.649,27.66-10.649,27.66Z" transform="translate(-10.402 -139.244)" fill="#3d3d3d"/>
          <path id="Path_1362" data-name="Path 1362" d="M119.528,271.952s12.366-3.88,11.942-2.6-2.529,1.324-4.633,3.381c0,0,13.825.149,13.161,1.289s-9.664,1.426-9.717,1.619,9.842.437,9.62,1.49-9.419.8-9.419.8,8.525.905,8.35,2.042-8.035.316-8.035.316,6.579.753,6.408,1.782c-.1.627-19.263.77-19.3,1.231-.02.24,1.626-11.342,1.626-11.342" transform="translate(-56.654 -143.924)" fill="#3d3d3d"/>
          <path id="Path_1363" data-name="Path 1363" d="M133.725,237.867s-7.51-10.5-6.171-10.493,2.037,1.982,4.637,3.335c0,0-4.15-13.129-2.865-12.853s4.348,8.7,4.548,8.694-2.643-9.45-1.576-9.565,3.677,8.665,3.677,8.665-1.789-8.348-.66-8.534,2.795,7.5,2.795,7.5-1.33-6.459-.3-6.617c.625-.1,6.294,15.925,6.294,15.925-.149,0-10.375,3.941-10.375,3.941" transform="translate(-51.705 -171.096)" fill="#3d3d3d"/>
          <path id="Path_1364" data-name="Path 1364" d="M88.075,249.692c.084-.008.362.49.377,1.48a2.025,2.025,0,0,1-.809,1.616,1.479,1.479,0,0,1-1.179.274,1.984,1.984,0,0,1-1.024-.66c-.488-.571-.808-.908-1.31-.969a1.447,1.447,0,0,0-1.193.341c-.583.534-.564,1.15-.683,1.143-.081.05-.382-.659.275-1.526a1.944,1.944,0,0,1,1.684-.682,2.042,2.042,0,0,1,1.053.4,5.954,5.954,0,0,1,.753.753c.787,1.074,1.82.027,1.876-.747C88.018,250.3,87.945,249.7,88.075,249.692Z" transform="translate(-75.315 -154.039)" fill="#3d3d3d"/>
          <path id="Path_1365" data-name="Path 1365" d="M90.475,246.335c-.05-.065.23-.563,1.068-1.092a2.025,2.025,0,0,1,1.8-.149,1.483,1.483,0,0,1,.847.864,2,2,0,0,1-.03,1.219,2.153,2.153,0,0,0-.146,1.623,1.439,1.439,0,0,0,.911.841c.758.221,1.275-.116,1.331-.011.084.041-.365.669-1.448.558a1.942,1.942,0,0,1-1.458-1.083A2.046,2.046,0,0,1,93.147,248a5.979,5.979,0,0,1,.251-1.036c.51-1.231-.924-1.567-1.614-1.213C91.024,246.067,90.549,246.442,90.475,246.335Z" transform="translate(-70.959 -156.514)" fill="#3d3d3d"/>
          <path id="Path_1366" data-name="Path 1366" d="M90.175,236.787c-.05-.067.23-.564,1.068-1.092a2.025,2.025,0,0,1,1.8-.149,1.483,1.483,0,0,1,.847.864,2,2,0,0,1-.03,1.219,2.153,2.153,0,0,0-.146,1.623,1.439,1.439,0,0,0,.911.841c.758.221,1.275-.117,1.331-.011.084.041-.365.669-1.448.558a1.942,1.942,0,0,1-1.458-1.083,2.046,2.046,0,0,1-.205-1.108,5.979,5.979,0,0,1,.251-1.036c.51-1.231-.924-1.567-1.614-1.213C90.724,236.519,90.249,236.894,90.175,236.787Z" transform="translate(-71.115 -161.493)" fill="#3d3d3d"/>
          <path id="Path_1367" data-name="Path 1367" d="M100.183,250.823c-.062.056-.583-.18-1.182-.969a2.024,2.024,0,0,1-.306-1.782,1.482,1.482,0,0,1,.787-.919,2.006,2.006,0,0,1,1.217-.076,2.155,2.155,0,0,0,1.629,0,1.438,1.438,0,0,0,.758-.981c.154-.774-.227-1.26-.126-1.325.035-.087.7.3.683,1.392a1.942,1.942,0,0,1-.952,1.547,2.039,2.039,0,0,1-1.085.3,6.05,6.05,0,0,1-1.054-.161c-1.27-.4-1.48,1.057-1.067,1.715C99.868,250.3,100.282,250.739,100.183,250.823Z" transform="translate(-66.717 -156.609)" fill="#3d3d3d"/>
          <path id="Path_1368" data-name="Path 1368" d="M107.993,260.172c.046.07-.271.546-1.146,1.01a2.022,2.022,0,0,1-1.807.017,1.482,1.482,0,0,1-.781-.925,1.993,1.993,0,0,1,.12-1.213,2.145,2.145,0,0,0,.265-1.607,1.439,1.439,0,0,0-.846-.907c-.741-.275-1.281.021-1.33-.088-.081-.047.414-.64,1.485-.45a1.944,1.944,0,0,1,1.374,1.188,2.04,2.04,0,0,1,.125,1.12,5.983,5.983,0,0,1-.327,1.015c-.6,1.19.8,1.631,1.52,1.328C107.427,260.4,107.926,260.06,107.993,260.172Z" transform="translate(-64.706 -150.765)" fill="#3d3d3d"/>
          <path id="Path_1369" data-name="Path 1369" d="M115.594,244.423c.046.07-.271.545-1.146,1.01a2.022,2.022,0,0,1-1.807.017,1.477,1.477,0,0,1-.781-.925,1.982,1.982,0,0,1,.12-1.213,2.16,2.16,0,0,0,.265-1.607,1.441,1.441,0,0,0-.847-.907c-.739-.275-1.28.021-1.328-.088-.081-.047.414-.641,1.485-.45a1.944,1.944,0,0,1,1.374,1.188,2.038,2.038,0,0,1,.125,1.12,5.914,5.914,0,0,1-.329,1.013c-.6,1.191.806,1.633,1.521,1.33C115.027,244.649,115.527,244.31,115.594,244.423Z" transform="translate(-60.743 -158.977)" fill="#3d3d3d"/>
          <path id="Path_1370" data-name="Path 1370" d="M119.763,240.592c.052-.067.606.07,1.339.736a2.022,2.022,0,0,1,.627,1.695,1.481,1.481,0,0,1-.606,1.048,2,2,0,0,1-1.182.3,2.155,2.155,0,0,0-1.6.294,1.448,1.448,0,0,0-.568,1.1c-.009.79.453,1.2.367,1.28-.018.091-.742-.172-.925-1.245a1.939,1.939,0,0,1,.653-1.695,2.035,2.035,0,0,1,1.012-.5,5.843,5.843,0,0,1,1.065-.035c1.322.161,1.263-1.31.736-1.881C120.17,241.049,119.681,240.693,119.763,240.592Z" transform="translate(-57.023 -158.792)" fill="#3d3d3d"/>
          <path id="Path_1371" data-name="Path 1371" d="M99.8,268.316c.044.07-.271.545-1.147,1.01a2.019,2.019,0,0,1-1.806.015,1.484,1.484,0,0,1-.782-.924,2,2,0,0,1,.12-1.213,2.158,2.158,0,0,0,.266-1.608,1.448,1.448,0,0,0-.847-.907c-.739-.275-1.28.023-1.328-.087-.081-.049.412-.641,1.485-.45a1.942,1.942,0,0,1,1.374,1.187,2.026,2.026,0,0,1,.123,1.12,5.806,5.806,0,0,1-.327,1.015c-.6,1.19.806,1.631,1.52,1.328C99.234,268.542,99.734,268.2,99.8,268.316Z" transform="translate(-68.978 -146.518)" fill="#3d3d3d"/>
          <path id="Path_1372" data-name="Path 1372" d="M109.607,253.669c-.067.047-.555-.248-1.057-1.1a2.016,2.016,0,0,1-.093-1.8,1.483,1.483,0,0,1,.89-.82,2,2,0,0,1,1.217.068,2.153,2.153,0,0,0,1.617.2,1.443,1.443,0,0,0,.869-.885c.245-.75-.076-1.278.032-1.331.044-.082.657.386.513,1.465a1.942,1.942,0,0,1-1.129,1.423,2.036,2.036,0,0,1-1.112.172,5.89,5.89,0,0,1-1.029-.285c-1.214-.546-1.594.875-1.263,1.576C109.358,253.112,109.717,253.6,109.607,253.669Z" transform="translate(-61.669 -154.931)" fill="#3d3d3d"/>
          <path id="Path_1373" data-name="Path 1373" d="M111.627,261.812c-.068.047-.557-.248-1.059-1.1a2.021,2.021,0,0,1-.093-1.8,1.483,1.483,0,0,1,.89-.82,2,2,0,0,1,1.217.068,2.16,2.16,0,0,0,1.617.2,1.45,1.45,0,0,0,.87-.885c.243-.752-.078-1.278.03-1.331.044-.082.657.386.513,1.465a1.946,1.946,0,0,1-1.127,1.423,2.04,2.04,0,0,1-1.114.172,5.969,5.969,0,0,1-1.027-.285c-1.214-.546-1.6.875-1.264,1.576C111.376,261.255,111.736,261.741,111.627,261.812Z" transform="translate(-60.616 -150.685)" fill="#3d3d3d"/>
          <path id="Path_1374" data-name="Path 1374" d="M94.94,257.438c-.082-.011-.245-.557-.043-1.528a2.019,2.019,0,0,1,1.144-1.4,1.483,1.483,0,0,1,1.21-.009,1.989,1.989,0,0,1,.855.869c.351.665.589,1.063,1.065,1.232a1.44,1.44,0,0,0,1.238-.07c.686-.393.8-1,.917-.966.088-.03.228.727-.6,1.43a1.945,1.945,0,0,1-1.792.3,2.03,2.03,0,0,1-.939-.621,5.954,5.954,0,0,1-.571-.9c-.531-1.222-1.768-.424-1.993.318C95.129,256.857,95.069,257.459,94.94,257.438Z" transform="translate(-68.701 -151.596)" fill="#3d3d3d"/>
          <path id="Path_1375" data-name="Path 1375" d="M109.644,267.491c-.082-.011-.245-.557-.043-1.528a2.016,2.016,0,0,1,1.144-1.4,1.477,1.477,0,0,1,1.21-.009,2,2,0,0,1,.855.869c.351.663.589,1.063,1.065,1.232a1.44,1.44,0,0,0,1.238-.072c.686-.391.8-1,.917-.965.088-.03.228.727-.6,1.43a1.945,1.945,0,0,1-1.792.3,2.042,2.042,0,0,1-.939-.621,5.964,5.964,0,0,1-.571-.9c-.531-1.22-1.769-.424-1.993.32C109.833,266.91,109.773,267.511,109.644,267.491Z" transform="translate(-61.033 -146.354)" fill="#3d3d3d"/>
          <path id="Path_1376" data-name="Path 1376" d="M109.218,237.036c-.084-.009-.246-.557-.044-1.528a2.023,2.023,0,0,1,1.144-1.4,1.487,1.487,0,0,1,1.211-.009,2.006,2.006,0,0,1,.855.869c.35.665.589,1.064,1.065,1.232a1.44,1.44,0,0,0,1.238-.07c.685-.393.8-1,.917-.965.088-.032.228.727-.6,1.429a1.941,1.941,0,0,1-1.792.3,2.029,2.029,0,0,1-.939-.621,5.952,5.952,0,0,1-.571-.9c-.531-1.22-1.769-.424-1.995.318C109.407,236.456,109.346,237.057,109.218,237.036Z" transform="translate(-61.256 -162.234)" fill="#3d3d3d"/>
          <path id="Path_1377" data-name="Path 1377" d="M105.138,272.756c-.043.072-.609.006-1.421-.563a2.018,2.018,0,0,1-.832-1.6,1.481,1.481,0,0,1,.469-1.115,2,2,0,0,1,1.137-.443c.749-.061,1.21-.12,1.553-.491a1.445,1.445,0,0,0,.423-1.167c-.09-.784-.6-1.13-.523-1.223.006-.094.758.078,1.074,1.118a1.94,1.94,0,0,1-.435,1.763,2.044,2.044,0,0,1-.942.619,6,6,0,0,1-1.053.167c-1.331.006-1.089,1.458-.5,1.958C104.679,272.354,105.208,272.646,105.138,272.756Z" transform="translate(-64.485 -145.469)" fill="#3d3d3d"/>
          <path id="Path_1378" data-name="Path 1378" d="M88.448,240.588c.072-.041.529.3.946,1.2a2.021,2.021,0,0,1-.085,1.8,1.474,1.474,0,0,1-.965.729,2,2,0,0,1-1.2-.187c-.679-.323-1.108-.5-1.59-.353a1.441,1.441,0,0,0-.952.8c-.316.723-.049,1.28-.161,1.322-.052.078-.616-.449-.367-1.508a1.943,1.943,0,0,1,1.261-1.307,2.054,2.054,0,0,1,1.124-.062,5.938,5.938,0,0,1,1,.383c1.155.663,1.674-.714,1.41-1.445C88.643,241.166,88.333,240.649,88.448,240.588Z" transform="translate(-74.329 -158.788)" fill="#3d3d3d"/>
          <path id="Path_1379" data-name="Path 1379" d="M105.281,237.575c.073-.041.529.3.946,1.2a2.02,2.02,0,0,1-.084,1.8,1.481,1.481,0,0,1-.966.729,2,2,0,0,1-1.2-.187c-.677-.323-1.106-.5-1.59-.353a1.438,1.438,0,0,0-.951.8c-.316.723-.05,1.28-.161,1.322-.053.078-.618-.449-.368-1.508a1.947,1.947,0,0,1,1.261-1.307,2.06,2.06,0,0,1,1.126-.062,5.986,5.986,0,0,1,1,.383c1.155.663,1.672-.715,1.41-1.444C105.478,238.153,105.167,237.636,105.281,237.575Z" transform="translate(-65.551 -160.359)" fill="#3d3d3d"/>
          <path id="Path_1380" data-name="Path 1380" d="M96.926,265.854a6.051,6.051,0,0,1,.017-1.567c.062-1,.178-2.454.338-4.243.318-3.575.82-8.519,1.409-13.959a15.871,15.871,0,0,0,.018-3.89,6.811,6.811,0,0,0-1.342-3.227,9.015,9.015,0,0,0-5.065-3.152,15.3,15.3,0,0,0-4.157-.364,8.653,8.653,0,0,1-1.559.037,4.615,4.615,0,0,1,1.535-.344,13.367,13.367,0,0,1,4.3.123,9.383,9.383,0,0,1,5.518,3.251,7.476,7.476,0,0,1,1.532,3.556,16.122,16.122,0,0,1,0,4.088c-.59,5.457-1.179,10.379-1.64,13.944-.231,1.78-.432,3.221-.587,4.214A5.942,5.942,0,0,1,96.926,265.854Z" transform="translate(-72.984 -161.687)" fill="#3d3d3d"/>
          <path id="Path_1381" data-name="Path 1381" d="M102.04,254.492c.023.218-5.177.946-11.613,1.626s-11.674,1.057-11.7.84,5.176-.946,11.615-1.628S102.017,254.275,102.04,254.492Z" transform="translate(-77.081 -151.568)" fill="#3d3d3d"/>
          <path id="Path_1382" data-name="Path 1382" d="M116.548,259.342c-.262-.023,1-4.613-.438-10.078-1.346-5.491-4.642-8.923-4.424-9.068a7.683,7.683,0,0,1,2.089,2.209,19.749,19.749,0,0,1,3.556,14A7.734,7.734,0,0,1,116.548,259.342Z" transform="translate(-59.901 -158.993)" fill="#3d3d3d"/>
          <path id="Path_1383" data-name="Path 1383" d="M155.687,257.528a8.8,8.8,0,0,1,.889-3.7c1.453-2.294,3.525-1.725,5.529-.715,2.036,1.024,3.951,1.639,6.165.682,3.487-1.509,5.033-6.672,1.786-9.164-1.051-.809-2.136.523-1.979,1.521.221,1.4.905,2.956-.3,4.164-1.613,1.617-3.5.263-5.112-.463a6.658,6.658,0,0,0-5.359-.237c-3.081,1.242-5.319,5.416-2.872,8.239a.754.754,0,0,0,1.252-.33Z" transform="translate(-38.147 -156.807)" fill="#3d3d3d"/>
          <path id="Path_1384" data-name="Path 1384" d="M160.266,216.14c.327,2.118,2.523,6.582,4.838,7.2,1.228.326,2.141-.484,3.095-1.14,1.737-1.2,3.455-2.424,5.173-3.647a1.491,1.491,0,0,0,.526-2.005q-2.282-3.512-4.563-7.022A1.482,1.482,0,0,0,167.33,209a60.968,60.968,0,0,0-5.667,4.146c-1.185,1.065.329,2.877,1.66,2.15a58.184,58.184,0,0,0,5.488-3.764l-2.005-.526,4.561,7.022.526-2.005c-1.032.735-2.066,1.465-3.095,2.2-.516.37-2.626,2.294-3.186,2.17-.665-.149-1.737-2.066-2.157-2.565A11.828,11.828,0,0,0,161.1,215.5c-.453-.31-.9.2-.832.639Z" transform="translate(-34.567 -175.369)" fill="#3d3d3d"/>
          <path id="Path_1385" data-name="Path 1385" d="M146.906,228.945c-2.392,2.3-3.3,5.87-1.021,8.628a6.691,6.691,0,0,0,8.983,1.077c6.472-5-.274-14.215-7.259-12.307a1.161,1.161,0,0,0,.306,2.27c2.043.116,4.23.195,5.861,1.625a4.248,4.248,0,0,1,.353,5.906c-3.807,4.681-10.42-2.212-6.421-6.4a.567.567,0,0,0-.8-.8Z" transform="translate(-42.748 -166.348)" fill="#3d3d3d"/>
          <path id="Path_1386" data-name="Path 1386" d="M183.022,242.321c-.825,4.281-1.529,8.57-2.183,12.882a1.313,1.313,0,0,0,1.585,1.585c4.047-.589,8.085-1.132,12.079-2.016a1.209,1.209,0,0,0,.717-1.759c-2.265-3.986-5.147-9.536-9.409-11.711-1.077-.551-2.606.641-1.8,1.8,1.269,1.824,3.145,3.192,4.619,4.863a34.206,34.206,0,0,1,4.52,6.258l1.035-1.8c-4.185.414-8.3,1.165-12.445,1.884l1.631,1.242c.5-4.333.943-8.657,1.269-13.005a.827.827,0,0,0-1.617-.219Z" transform="translate(-23.847 -158.486)" fill="#3d3d3d"/>
          <path id="Path_1387" data-name="Path 1387" d="M170.575,241.564a76,76,0,0,0,1.882-13c.059-1.339-2.122-1.675-2.373-.321a75.826,75.826,0,0,0-1.106,13.107.817.817,0,0,0,1.6.216Z" transform="translate(-30.021 -165.676)" fill="#3d3d3d"/>
          <path id="Path_1388" data-name="Path 1388" d="M200.527,236.912a75.754,75.754,0,0,0,13.078.86,1.21,1.21,0,0,0,0-2.418,74.413,74.413,0,0,0-12.862-.038c-.846.061-1.182,1.461-.216,1.6Z" transform="translate(-13.875 -161.671)" fill="#3d3d3d"/>
          <path id="Path_1389" data-name="Path 1389" d="M177.6,201.057a73.324,73.324,0,0,0,12,5.334,1.214,1.214,0,0,0,.933-2.209,73.415,73.415,0,0,0-12.307-4.612.817.817,0,0,0-.625,1.486Z" transform="translate(-25.732 -180.192)" fill="#3d3d3d"/>
          <path id="Path_1390" data-name="Path 1390" d="M186.972,223.72l-.219-.193a2.442,2.442,0,0,0-3.454,3.454l.193.219a2.46,2.46,0,0,0,3.48-3.48Z" transform="translate(-22.914 -168.048)" fill="#3d3d3d"/>
        </g>
        <g id="Group_501" data-name="Group 501">
          <g id="Group_500" data-name="Group 500">
            <g id="Group_374" data-name="Group 374" transform="translate(180.499 43.119)">
              <g id="Group_373" data-name="Group 373">
                <path id="Path_1391" data-name="Path 1391" d="M196.616,216.02c-2.39,2.3-3.3,5.87-1.019,8.628a6.691,6.691,0,0,0,8.983,1.077c6.472-5-.275-14.215-7.26-12.305a1.16,1.16,0,0,0,.307,2.268c2.043.117,4.228.195,5.861,1.626a4.246,4.246,0,0,1,.353,5.9c-3.808,4.682-10.42-2.212-6.422-6.4a.567.567,0,0,0-.8-.8Z" transform="translate(-194.282 -213.163)" fill="#8aa9fc"/>
              </g>
            </g>
            <g id="Group_375" data-name="Group 375" transform="translate(0 22.597)">
              <path id="Path_1392" data-name="Path 1392" d="M102.716,200.345a7.773,7.773,0,0,0-10.968,7.4c.084,2.06.905,4.406-.4,6-1.013,1.231-2.821,1.346-4.272,2a6,6,0,0,0-2.879,7.654c.679,1.493,2.025,2.866,1.768,4.487a3.619,3.619,0,0,1-1.919,2.4c-.92.528-1.954.828-2.906,1.295a10.407,10.407,0,0,0-5.486,9.52,13.345,13.345,0,0,0,5.279,9.915A18.74,18.74,0,0,0,91.74,254.7c3.875.145,7.928-.764,10.886-3.273a17.88,17.88,0,0,0,4.736-7.227,36.169,36.169,0,0,0,2.386-16.28c-.488-5.719-2.337-11.263-2.74-16.99a37.582,37.582,0,0,0-.537-5.739,7.292,7.292,0,0,0-3.032-4.727" transform="translate(-75.646 -199.675)" fill="#251a51"/>
            </g>
            <g id="Group_376" data-name="Group 376" transform="translate(24.825 14.505)">
              <path id="Path_1393" data-name="Path 1393" d="M93.326,203.859a17.114,17.114,0,0,1,11.539-9.145,12.5,12.5,0,0,1,9.066,1.155,8.254,8.254,0,0,1,4.119,7.826c-.253,1.914-1.289,3.62-1.947,5.435s-.876,4.026.348,5.518c1.1,1.339,2.984,1.668,4.482,2.535a6.722,6.722,0,0,1-.689,11.989,8.079,8.079,0,0,1,6.935,9.868c-.742,3.168-3.317,5.593-6.084,7.3a26.831,26.831,0,0,1-12.827,3.962c-4.8.216-10.107-1.2-12.715-5.232-1.713-2.647-1.975-5.947-2.167-9.1-.578-9.5-.977-19-1.374-28.509a16.474,16.474,0,0,1,.234-4.572" transform="translate(-91.963 -194.356)" fill="#251a51"/>
            </g>
            <path id="Path_1394" data-name="Path 1394" d="M103.464,230.2l42.993,16.118-4.1-17.363,11.183-2.841s12.027,33.941,3.674,34.849c-14.623,1.591-36.749-4.2-36.749-4.2Z" transform="translate(-61.14 -163.288)" fill="#f6aea6"/>
            <path id="Path_1395" data-name="Path 1395" d="M100.993,293.29S152.935,236.6,188,248.975,237.87,319.1,237.87,319.1l-27.929-.452s-22.058-43.612-32.821-41.923-44,43.2-44,43.2Z" transform="translate(-62.428 -152.292)" fill="#55318c"/>
            <path id="Path_1396" data-name="Path 1396" d="M128.717,268.97l2.156,33.265C119.677,316,80.7,298.2,80.7,298.2l-.453-13.908-.905-33.123c.9-13.192,13.148-19.666,13.148-19.666,5.065-2.524,12.789-3.957,19.748-3.613,7.265.359,9.06,3.837,12.053,10.468C126.707,243.714,133.269,252.438,128.717,268.97Z" transform="translate(-73.719 -162.391)" fill="#edc483"/>
            <path id="Path_1397" data-name="Path 1397" d="M85.342,278.929s-5.961,24.264,12.208,28.089,84.994-5.123,102.4-3.592,66.9,4.417,66.9,4.417l3.624-28.813s-77.028-3.693-85.735-1.529S85.342,278.929,85.342,278.929Z" transform="translate(-71.078 -136.85)" fill="#6338a1"/>
            <g id="Group_377" data-name="Group 377" transform="translate(2.988 99.659)">
              <path id="Path_1398" data-name="Path 1398" d="M97.6,250.325s-5.448,32.106,2.235,31.316c25.273-2.6,40.321-2.95,40.321-2.95l4.189,8.7c.1,1.482-47.86,15.21-55.566,10.67-5.441-3.2-14.108-11.837-10.174-37.635l.93-8.646Z" transform="translate(-77.61 -250.325)" fill="#f6aea6"/>
            </g>
            <g id="Group_378" data-name="Group 378" transform="translate(45.727 108.823)">
              <path id="Path_1399" data-name="Path 1399" d="M105.753,293.276l-.052-2.152,31.721-4.479,8.42-29.443,35.139-.853L171.5,288.218Z" transform="translate(-105.701 -256.349)" fill="#968abc"/>
              <path id="Path_1400" data-name="Path 1400" d="M145,266.952a2.6,2.6,0,1,1-2.664-2.538A2.6,2.6,0,0,1,145,266.952Z" transform="translate(-87.924 -252.143)" fill="#fff"/>
              <path id="Path_1401" data-name="Path 1401" d="M146.394,267.283a3.643,3.643,0,1,1-3.731-3.554A3.644,3.644,0,0,1,146.394,267.283Z" transform="translate(-88.281 -252.5)" fill="#fff" opacity="0.41"/>
            </g>
            <path id="Path_1402" data-name="Path 1402" d="M84.082,237.149s-5.894,5.66-7.213,27.08L99.685,261.7S103.487,225.224,84.082,237.149Z" transform="translate(-75.008 -158.786)" fill="#edc483"/>
            <g id="Group_388" data-name="Group 388" transform="translate(176.555)">
              <path id="Path_1403" data-name="Path 1403" d="M191.69,198.777s8.088,18.162,10.343,17.211,23.144-13.911,23.144-13.911-8.561-16.261-10.343-17.211S191.69,198.777,191.69,198.777Z" transform="translate(-191.69 -184.822)" fill="#d6b0ea"/>
              <g id="Group_381" data-name="Group 381" transform="translate(0 0.043)">
                <g id="Group_380" data-name="Group 380">
                  <g id="Group_379" data-name="Group 379">
                    <path id="Path_1404" data-name="Path 1404" d="M214.834,184.851a32.723,32.723,0,0,1-1.538,4.882c-1.045,2.979-2.539,7.076-4.236,11.586l-.122.324-.114.3-.321-.053c-4.678-.762-8.891-1.491-11.93-2.057a31.461,31.461,0,0,1-4.884-1.076,31.548,31.548,0,0,1,4.974.528c3.061.424,7.288,1.065,11.968,1.823l-.435.253.123-.326c1.7-4.508,3.274-8.575,4.453-11.5A32.408,32.408,0,0,1,214.834,184.851Z" transform="translate(-191.69 -184.851)" fill="#1a3066"/>
                  </g>
                </g>
              </g>
              <g id="Group_384" data-name="Group 384" transform="translate(7.643 15.916)">
                <g id="Group_383" data-name="Group 383">
                  <g id="Group_382" data-name="Group 382">
                    <path id="Path_1405" data-name="Path 1405" d="M196.755,208.4c-.213-.047.415-3.031,1.4-6.661s1.961-6.521,2.17-6.454-.42,3.051-1.4,6.662S196.968,208.446,196.755,208.4Z" transform="translate(-196.714 -195.283)" fill="#1a3066"/>
                  </g>
                </g>
              </g>
              <g id="Group_387" data-name="Group 387" transform="translate(19.211 11.525)">
                <g id="Group_386" data-name="Group 386">
                  <g id="Group_385" data-name="Group 385">
                    <path id="Path_1406" data-name="Path 1406" d="M217.214,194.513c-.035.216-2.95-.065-6.51-.63s-6.421-1.2-6.387-1.413,2.949.067,6.51.631S217.248,194.3,217.214,194.513Z" transform="translate(-204.317 -192.397)" fill="#1a3066"/>
                  </g>
                </g>
              </g>
            </g>
            <path id="Path_1407" data-name="Path 1407" d="M90.462,210.928l.516,6.8s-5.781.779-4.134,6.052,5.6,2.967,5.6,2.967.987,13.514,14.831,9.228c11.017-3.41,10.343-17.676,8.945-29.839a8.143,8.143,0,0,0-9.654-7.044l-8.322,1.622A9.658,9.658,0,0,0,90.462,210.928Z" transform="translate(-69.96 -177.461)" fill="#f6aea6"/>
            <path id="Path_1408" data-name="Path 1408" d="M89.46,215l3.729,19.89a7.978,7.978,0,0,0,9.695,6.29h0a7.976,7.976,0,0,0,6-9.155l-2.024-11.4Z" transform="translate(-68.442 -169.087)" fill="#f6aea6"/>
            <g id="Group_391" data-name="Group 391" transform="translate(36.31 34.025)">
              <g id="Group_390" data-name="Group 390">
                <g id="Group_389" data-name="Group 389">
                  <path id="Path_1409" data-name="Path 1409" d="M99.531,219.3c.053-.038.166.178.418.207s.622-.231.714-.771a7.018,7.018,0,0,0-.02-2.055l-.2-2.65c-.236-3.764-.25-6.825-.03-6.839s.586,3.025.822,6.79l.135,2.653a6.238,6.238,0,0,1-.172,2.261c-.184.686-.89,1.112-1.331.908C99.446,219.584,99.5,219.291,99.531,219.3Z" transform="translate(-99.511 -207.186)" fill="#251a51"/>
                </g>
              </g>
            </g>
            <g id="Group_394" data-name="Group 394" transform="translate(27.637 57.111)">
              <g id="Group_393" data-name="Group 393">
                <g id="Group_392" data-name="Group 392">
                  <path id="Path_1410" data-name="Path 1410" d="M106.995,222.376c.061.073-.49.68-1.626,1.334a10.5,10.5,0,0,1-9.873.208c-1.165-.606-1.739-1.188-1.681-1.266.1-.219,2.8,1.7,6.627,1.6C104.267,224.188,106.884,222.159,106.995,222.376Z" transform="translate(-93.81 -222.359)" fill="#251a51"/>
                </g>
              </g>
            </g>
            <g id="Group_397" data-name="Group 397" transform="translate(32.374 47.115)">
              <g id="Group_396" data-name="Group 396">
                <g id="Group_395" data-name="Group 395">
                  <path id="Path_1411" data-name="Path 1411" d="M102.666,217.6c.078.056-.1.5-.714.934a3.242,3.242,0,0,1-4.881-1.569c-.246-.709-.131-1.175-.037-1.175.12-.011.215.4.543.934a3.162,3.162,0,0,0,4.1,1.319C102.258,217.8,102.575,217.521,102.666,217.6Z" transform="translate(-96.924 -215.79)" fill="#251a51"/>
                </g>
              </g>
            </g>
            <g id="Group_400" data-name="Group 400" transform="translate(18.73 43.515)">
              <g id="Group_399" data-name="Group 399">
                <g id="Group_398" data-name="Group 398">
                  <path id="Path_1412" data-name="Path 1412" d="M89.809,216.887c0,.093-.338.257-.94.079a1.33,1.33,0,0,1-.831-.793,1.2,1.2,0,0,1-.035-.762,1.006,1.006,0,0,1,.613-.66.972.972,0,0,1,1.194.367l-.672.35c-.44-1.112-.653-1.967-.488-2.039s.654.659,1.184,1.731l-.672.35a.27.27,0,0,0-.263-.018c-.148.046-.215.221-.164.455a.851.851,0,0,0,.376.513C89.473,216.7,89.818,216.771,89.809,216.887Z" transform="translate(-87.957 -213.424)" fill="#251a51"/>
                </g>
              </g>
            </g>
            <g id="Group_403" data-name="Group 403" transform="translate(41.169 35.258)">
              <g id="Group_402" data-name="Group 402">
                <g id="Group_401" data-name="Group 401">
                  <path id="Path_1413" data-name="Path 1413" d="M103.409,210.176c-.213.049-.5-.4-.633-1s-.073-1.127.141-1.176.5.4.631,1S103.622,210.129,103.409,210.176Z" transform="translate(-102.705 -207.997)" fill="#251a51"/>
                </g>
              </g>
            </g>
            <g id="Group_406" data-name="Group 406" transform="translate(29.364 36.345)">
              <g id="Group_405" data-name="Group 405">
                <g id="Group_404" data-name="Group 404">
                  <path id="Path_1414" data-name="Path 1414" d="M95.734,210.894c-.21.058-.517-.382-.683-.983s-.132-1.137.079-1.2.517.382.683.983S95.946,210.835,95.734,210.894Z" transform="translate(-94.946 -208.711)" fill="#251a51"/>
                </g>
              </g>
            </g>
            <g id="Group_409" data-name="Group 409" transform="translate(28.423 33.134)">
              <g id="Group_408" data-name="Group 408">
                <g id="Group_407" data-name="Group 407">
                  <path id="Path_1415" data-name="Path 1415" d="M97.144,207.044c-.067.215-.689.207-1.381.4-.7.172-1.235.485-1.4.332-.169-.132.265-.854,1.2-1.1S97.227,206.845,97.144,207.044Z" transform="translate(-94.327 -206.601)" fill="#251a51"/>
                </g>
              </g>
            </g>
            <g id="Group_412" data-name="Group 412" transform="translate(40.029 31.064)">
              <g id="Group_411" data-name="Group 411">
                <g id="Group_410" data-name="Group 410">
                  <path id="Path_1416" data-name="Path 1416" d="M105.136,205.856c-.088.207-.774.1-1.578.184-.8.061-1.464.281-1.585.093-.131-.169.491-.8,1.517-.882S105.235,205.668,105.136,205.856Z" transform="translate(-101.956 -205.24)" fill="#251a51"/>
                </g>
              </g>
            </g>
            <g id="Group_413" data-name="Group 413" transform="translate(18.018 17.832)">
              <path id="Path_1417" data-name="Path 1417" d="M90.488,218.978c3.863-3.767,5-10.043,6.048-15.336a13.53,13.53,0,0,0,12.626,1.643,20.343,20.343,0,0,0,4.5,3.93,2.016,2.016,0,0,0,1.59.441c.648-.2.936-.94,1.091-1.6a11.356,11.356,0,0,0-.225-6.41,7.719,7.719,0,0,0-4.3-4.613c-2.162-.837-4.593-.473-6.836.11a37.964,37.964,0,0,0-9.651,3.986c-2.956,1.733-5.8,4.024-7.05,7.213s-1.249,9.386,1.776,11" transform="translate(-87.489 -196.543)" fill="#251a51"/>
            </g>
            <g id="Group_416" data-name="Group 416" transform="translate(33.479 47.635)" opacity="0.28">
              <g id="Group_415" data-name="Group 415">
                <g id="Group_414" data-name="Group 414">
                  <path id="Path_1418" data-name="Path 1418" d="M100.96,218.159a1.654,1.654,0,1,1-3.034-.645c.6-.917,1.41-1.461,1.877-1.374C100.265,216.251,100.782,217.076,100.96,218.159Z" transform="translate(-97.651 -216.131)" fill="#251a51"/>
                </g>
              </g>
            </g>
            <g id="Group_419" data-name="Group 419" transform="translate(25.809 41.678)" opacity="0.12">
              <g id="Group_418" data-name="Group 418">
                <g id="Group_417" data-name="Group 417">
                  <path id="Path_1419" data-name="Path 1419" d="M98.774,213.888c.193,1.073-1.133,2.208-2.982,2.29s-3.273-.925-3.178-2.01,1.436-1.873,3-1.947S98.582,212.806,98.774,213.888Z" transform="translate(-92.609 -212.216)" fill="#251a51"/>
                </g>
              </g>
            </g>
            <g id="Group_422" data-name="Group 422" transform="translate(41.149 40.484)" opacity="0.12">
              <g id="Group_421" data-name="Group 421">
                <g id="Group_420" data-name="Group 420">
                  <path id="Path_1420" data-name="Path 1420" d="M108.154,213.1c.216,1.068-.943,2.2-2.618,2.29s-2.944-.927-2.837-2.01a2.966,2.966,0,0,1,5.456-.28Z" transform="translate(-102.692 -211.431)" fill="#251a51"/>
                </g>
              </g>
            </g>
            <g id="Group_425" data-name="Group 425" transform="translate(20.227 48.509)">
              <g id="Group_424" data-name="Group 424">
                <g id="Group_423" data-name="Group 423">
                  <path id="Path_1421" data-name="Path 1421" d="M89.571,226.463c-.222-.006-.344-2.186-.485-4.866s-.237-4.863-.015-4.891.669,2.136.806,4.85S89.786,226.469,89.571,226.463Z" transform="translate(-88.941 -216.706)" fill="#5944d8"/>
                </g>
              </g>
            </g>
            <path id="Path_1422" data-name="Path 1422" d="M104.568,228.758c-3.743-1.486,25.034,9.2,25.034,9.2l-2.92,19.685-10.945-3.591Z" transform="translate(-60.739 -161.986)" fill="#edc483"/>
            <g id="Group_426" data-name="Group 426" transform="translate(21.431 14.857)">
              <path id="Path_1423" data-name="Path 1423" d="M95,201.972a5.97,5.97,0,0,0,.8-4.707,3.285,3.285,0,0,0-2.667-2.675,2.931,2.931,0,0,0-2.072.855,4.259,4.259,0,0,0,4.049,7.224" transform="translate(-89.732 -194.587)" fill="#251a51"/>
            </g>
            <path id="Path_1424" data-name="Path 1424" d="M207.031,285.553s9.36-13.419,8.219-8.339-10.649,27.66-10.649,27.66Z" transform="translate(-8.402 -137.244)" fill="#251a51"/>
            <path id="Path_1425" data-name="Path 1425" d="M117.528,269.952s12.366-3.88,11.942-2.6-2.529,1.324-4.633,3.381c0,0,13.825.149,13.161,1.289s-9.664,1.426-9.717,1.619,9.842.437,9.62,1.49-9.419.8-9.419.8,8.525.905,8.35,2.042-8.035.316-8.035.316,6.579.753,6.408,1.782c-.1.627-19.263.77-19.3,1.231-.02.24,1.626-11.342,1.626-11.342" transform="translate(-54.654 -141.924)" fill="#f6aea6"/>
            <path id="Path_1426" data-name="Path 1426" d="M131.725,235.867s-7.51-10.5-6.171-10.493,2.037,1.982,4.637,3.335c0,0-4.151-13.129-2.865-12.853s4.348,8.7,4.548,8.694-2.643-9.45-1.576-9.565,3.677,8.665,3.677,8.665-1.789-8.348-.66-8.534,2.795,7.5,2.795,7.5-1.33-6.459-.3-6.617c.625-.1,6.294,15.925,6.294,15.925-.149,0-10.375,3.941-10.375,3.941" transform="translate(-49.705 -169.096)" fill="#f6aea6"/>
            <g id="Group_429" data-name="Group 429" transform="translate(6.799 95.653)">
              <g id="Group_428" data-name="Group 428">
                <g id="Group_427" data-name="Group 427">
                  <path id="Path_1427" data-name="Path 1427" d="M86.075,247.692c.084-.008.362.49.377,1.48a2.025,2.025,0,0,1-.809,1.616,1.479,1.479,0,0,1-1.179.274,1.984,1.984,0,0,1-1.024-.66c-.488-.571-.808-.908-1.31-.969a1.447,1.447,0,0,0-1.193.341c-.583.534-.564,1.15-.683,1.143-.081.05-.382-.659.275-1.526a1.944,1.944,0,0,1,1.684-.682,2.042,2.042,0,0,1,1.053.4,5.954,5.954,0,0,1,.753.753c.787,1.074,1.82.027,1.876-.747C86.018,248.3,85.945,247.7,86.075,247.692Z" transform="translate(-80.115 -247.692)" fill="#f9f2fc"/>
                </g>
              </g>
            </g>
            <g id="Group_432" data-name="Group 432" transform="translate(19.51 88.432)">
              <g id="Group_431" data-name="Group 431">
                <g id="Group_430" data-name="Group 430">
                  <path id="Path_1428" data-name="Path 1428" d="M88.475,244.335c-.05-.065.23-.563,1.068-1.092a2.025,2.025,0,0,1,1.8-.149,1.483,1.483,0,0,1,.847.864,2,2,0,0,1-.03,1.219,2.153,2.153,0,0,0-.146,1.623,1.439,1.439,0,0,0,.911.841c.758.221,1.275-.116,1.331-.011.084.041-.365.669-1.448.558a1.942,1.942,0,0,1-1.458-1.083A2.046,2.046,0,0,1,91.147,246a5.979,5.979,0,0,1,.251-1.036c.51-1.231-.924-1.567-1.614-1.213C89.024,244.067,88.549,244.442,88.475,244.335Z" transform="translate(-88.469 -242.946)" fill="#f9f2fc"/>
                </g>
              </g>
            </g>
            <g id="Group_435" data-name="Group 435" transform="translate(19.054 73.905)">
              <g id="Group_434" data-name="Group 434">
                <g id="Group_433" data-name="Group 433">
                  <path id="Path_1429" data-name="Path 1429" d="M88.175,234.787c-.05-.067.23-.564,1.068-1.092a2.025,2.025,0,0,1,1.8-.149,1.483,1.483,0,0,1,.847.864,2,2,0,0,1-.03,1.219,2.153,2.153,0,0,0-.146,1.623,1.439,1.439,0,0,0,.911.841c.758.221,1.275-.117,1.331-.011.084.041-.365.669-1.448.558a1.942,1.942,0,0,1-1.458-1.083,2.046,2.046,0,0,1-.205-1.108,5.98,5.98,0,0,1,.251-1.036c.51-1.231-.924-1.567-1.614-1.213C88.724,234.519,88.249,234.894,88.175,234.787Z" transform="translate(-88.169 -233.398)" fill="#f9f2fc"/>
                </g>
              </g>
            </g>
            <g id="Group_438" data-name="Group 438" transform="translate(31.887 88.154)">
              <g id="Group_437" data-name="Group 437">
                <g id="Group_436" data-name="Group 436">
                  <path id="Path_1430" data-name="Path 1430" d="M98.183,248.823c-.062.056-.583-.18-1.182-.969a2.024,2.024,0,0,1-.306-1.782,1.482,1.482,0,0,1,.787-.919,2.005,2.005,0,0,1,1.217-.076,2.155,2.155,0,0,0,1.629,0,1.438,1.438,0,0,0,.758-.981c.154-.774-.227-1.26-.126-1.325.035-.087.7.3.683,1.392a1.942,1.942,0,0,1-.952,1.547,2.04,2.04,0,0,1-1.085.3,6.056,6.056,0,0,1-1.054-.161c-1.27-.4-1.48,1.057-1.067,1.715C97.868,248.3,98.282,248.739,98.183,248.823Z" transform="translate(-96.604 -242.763)" fill="#f9f2fc"/>
                </g>
              </g>
            </g>
            <g id="Group_441" data-name="Group 441" transform="translate(37.754 105.207)">
              <g id="Group_440" data-name="Group 440">
                <g id="Group_439" data-name="Group 439">
                  <path id="Path_1431" data-name="Path 1431" d="M105.993,258.172c.046.07-.271.546-1.146,1.01a2.022,2.022,0,0,1-1.807.017,1.481,1.481,0,0,1-.781-.925,1.993,1.993,0,0,1,.12-1.213,2.144,2.144,0,0,0,.265-1.607,1.439,1.439,0,0,0-.846-.907c-.741-.275-1.281.021-1.33-.088-.081-.047.414-.641,1.485-.45a1.944,1.944,0,0,1,1.374,1.188,2.04,2.04,0,0,1,.125,1.12,5.982,5.982,0,0,1-.327,1.015c-.6,1.19.8,1.631,1.52,1.328C105.427,258.4,105.926,258.06,105.993,258.172Z" transform="translate(-100.46 -253.971)" fill="#f9f2fc"/>
                </g>
              </g>
            </g>
            <g id="Group_444" data-name="Group 444" transform="translate(49.319 81.245)">
              <g id="Group_443" data-name="Group 443">
                <g id="Group_442" data-name="Group 442">
                  <path id="Path_1432" data-name="Path 1432" d="M113.594,242.423c.046.07-.271.545-1.146,1.01a2.022,2.022,0,0,1-1.807.017,1.477,1.477,0,0,1-.781-.925,1.982,1.982,0,0,1,.12-1.213,2.16,2.16,0,0,0,.265-1.607,1.441,1.441,0,0,0-.847-.907c-.739-.275-1.28.021-1.328-.088-.081-.047.414-.641,1.485-.45a1.944,1.944,0,0,1,1.374,1.188,2.038,2.038,0,0,1,.125,1.12,5.915,5.915,0,0,1-.329,1.013c-.6,1.191.806,1.633,1.521,1.33C113.027,242.649,113.527,242.31,113.594,242.423Z" transform="translate(-108.061 -238.222)" fill="#f9f2fc"/>
                </g>
              </g>
            </g>
            <g id="Group_447" data-name="Group 447" transform="translate(60.172 81.785)">
              <g id="Group_446" data-name="Group 446">
                <g id="Group_445" data-name="Group 445">
                  <path id="Path_1433" data-name="Path 1433" d="M117.763,238.592c.052-.067.606.07,1.339.736a2.022,2.022,0,0,1,.627,1.695,1.481,1.481,0,0,1-.606,1.048,2,2,0,0,1-1.182.3,2.155,2.155,0,0,0-1.6.294,1.448,1.448,0,0,0-.567,1.1c-.009.79.453,1.2.367,1.28-.018.091-.742-.172-.925-1.245a1.939,1.939,0,0,1,.653-1.695,2.035,2.035,0,0,1,1.012-.5,5.843,5.843,0,0,1,1.065-.035c1.322.161,1.263-1.31.736-1.88C118.17,239.049,117.681,238.693,117.763,238.592Z" transform="translate(-115.195 -238.577)" fill="#f9f2fc"/>
                </g>
              </g>
            </g>
            <g id="Group_450" data-name="Group 450" transform="translate(25.291 117.597)">
              <g id="Group_449" data-name="Group 449">
                <g id="Group_448" data-name="Group 448">
                  <path id="Path_1434" data-name="Path 1434" d="M97.8,266.316c.044.07-.271.545-1.147,1.01a2.019,2.019,0,0,1-1.806.015,1.484,1.484,0,0,1-.782-.924,2,2,0,0,1,.12-1.213,2.158,2.158,0,0,0,.266-1.608,1.448,1.448,0,0,0-.847-.907c-.739-.275-1.28.023-1.328-.087-.081-.049.412-.641,1.485-.45a1.942,1.942,0,0,1,1.374,1.187,2.026,2.026,0,0,1,.123,1.12,5.809,5.809,0,0,1-.327,1.015c-.6,1.19.806,1.631,1.52,1.328C97.234,266.542,97.734,266.2,97.8,266.316Z" transform="translate(-92.268 -262.115)" fill="#f9f2fc"/>
                </g>
              </g>
            </g>
            <g id="Group_453" data-name="Group 453" transform="translate(46.616 93.051)">
              <g id="Group_452" data-name="Group 452">
                <g id="Group_451" data-name="Group 451">
                  <path id="Path_1435" data-name="Path 1435" d="M107.607,251.669c-.067.047-.555-.248-1.057-1.1a2.016,2.016,0,0,1-.093-1.8,1.483,1.483,0,0,1,.89-.82,2,2,0,0,1,1.217.068,2.153,2.153,0,0,0,1.617.2,1.443,1.443,0,0,0,.869-.885c.245-.75-.076-1.278.032-1.331.044-.082.657.386.513,1.465a1.942,1.942,0,0,1-1.129,1.423,2.036,2.036,0,0,1-1.112.172,5.89,5.89,0,0,1-1.029-.284c-1.214-.546-1.594.875-1.263,1.576C107.358,251.112,107.717,251.6,107.607,251.669Z" transform="translate(-106.285 -245.982)" fill="#f9f2fc"/>
                </g>
              </g>
            </g>
            <g id="Group_456" data-name="Group 456" transform="translate(49.688 105.44)">
              <g id="Group_455" data-name="Group 455">
                <g id="Group_454" data-name="Group 454">
                  <path id="Path_1436" data-name="Path 1436" d="M109.628,259.812c-.068.047-.557-.248-1.059-1.1a2.021,2.021,0,0,1-.093-1.8,1.483,1.483,0,0,1,.89-.82,2,2,0,0,1,1.217.068,2.159,2.159,0,0,0,1.617.2,1.45,1.45,0,0,0,.87-.885c.243-.752-.078-1.278.03-1.331.044-.082.657.386.513,1.465a1.946,1.946,0,0,1-1.127,1.423,2.041,2.041,0,0,1-1.114.172,5.974,5.974,0,0,1-1.027-.284c-1.214-.546-1.6.875-1.264,1.576C109.376,259.255,109.736,259.741,109.628,259.812Z" transform="translate(-108.304 -254.125)" fill="#f9f2fc"/>
                </g>
              </g>
            </g>
            <g id="Group_459" data-name="Group 459" transform="translate(26.099 102.782)">
              <g id="Group_458" data-name="Group 458">
                <g id="Group_457" data-name="Group 457">
                  <path id="Path_1437" data-name="Path 1437" d="M92.94,255.438c-.082-.011-.245-.557-.043-1.528a2.019,2.019,0,0,1,1.144-1.4,1.483,1.483,0,0,1,1.21-.009,1.989,1.989,0,0,1,.855.869c.351.665.589,1.063,1.065,1.232a1.44,1.44,0,0,0,1.238-.07c.686-.393.8-1,.917-.966.088-.03.228.727-.6,1.43a1.944,1.944,0,0,1-1.792.3,2.03,2.03,0,0,1-.939-.621,5.956,5.956,0,0,1-.571-.9c-.531-1.222-1.768-.424-1.993.318C93.129,254.857,93.069,255.459,92.94,255.438Z" transform="translate(-92.8 -252.378)" fill="#f9f2fc"/>
                </g>
              </g>
            </g>
            <g id="Group_462" data-name="Group 462" transform="translate(48.471 118.077)">
              <g id="Group_461" data-name="Group 461">
                <g id="Group_460" data-name="Group 460">
                  <path id="Path_1438" data-name="Path 1438" d="M107.644,265.491c-.082-.011-.245-.557-.043-1.528a2.016,2.016,0,0,1,1.144-1.4,1.477,1.477,0,0,1,1.21-.009,2,2,0,0,1,.855.869c.351.663.589,1.063,1.065,1.232a1.44,1.44,0,0,0,1.238-.072c.686-.391.8-1,.917-.965.088-.03.228.727-.6,1.43a1.945,1.945,0,0,1-1.792.3,2.041,2.041,0,0,1-.939-.621,5.964,5.964,0,0,1-.571-.9c-.531-1.22-1.769-.424-1.993.32C107.833,264.91,107.773,265.511,107.644,265.491Z" transform="translate(-107.504 -262.43)" fill="#f9f2fc"/>
                </g>
              </g>
            </g>
            <g id="Group_465" data-name="Group 465" transform="translate(47.821 71.742)">
              <g id="Group_464" data-name="Group 464">
                <g id="Group_463" data-name="Group 463">
                  <path id="Path_1439" data-name="Path 1439" d="M107.218,235.036c-.084-.009-.246-.557-.044-1.528a2.023,2.023,0,0,1,1.144-1.4,1.486,1.486,0,0,1,1.211-.009,2.006,2.006,0,0,1,.855.869c.35.665.589,1.064,1.065,1.232a1.44,1.44,0,0,0,1.238-.07c.685-.393.8-1,.917-.965.088-.032.228.727-.6,1.429a1.941,1.941,0,0,1-1.792.3,2.029,2.029,0,0,1-.939-.621,5.953,5.953,0,0,1-.571-.9c-.531-1.22-1.769-.424-1.995.318C107.407,234.456,107.346,235.057,107.218,235.036Z" transform="translate(-107.077 -231.976)" fill="#f9f2fc"/>
                </g>
              </g>
            </g>
            <g id="Group_468" data-name="Group 468" transform="translate(38.4 120.658)">
              <g id="Group_467" data-name="Group 467">
                <g id="Group_466" data-name="Group 466">
                  <path id="Path_1440" data-name="Path 1440" d="M103.138,270.756c-.043.071-.609.006-1.421-.563a2.018,2.018,0,0,1-.832-1.6,1.481,1.481,0,0,1,.469-1.115,2,2,0,0,1,1.137-.443c.749-.061,1.21-.12,1.553-.491a1.445,1.445,0,0,0,.423-1.167c-.09-.784-.6-1.13-.523-1.223.006-.094.758.078,1.074,1.118a1.94,1.94,0,0,1-.435,1.763,2.044,2.044,0,0,1-.942.619,6.01,6.01,0,0,1-1.053.167c-1.331.006-1.089,1.458-.5,1.958C102.679,270.354,103.208,270.646,103.138,270.756Z" transform="translate(-100.885 -264.127)" fill="#f9f2fc"/>
                </g>
              </g>
            </g>
            <g id="Group_471" data-name="Group 471" transform="translate(9.677 81.797)">
              <g id="Group_470" data-name="Group 470">
                <g id="Group_469" data-name="Group 469">
                  <path id="Path_1441" data-name="Path 1441" d="M86.448,238.588c.072-.041.529.3.946,1.2a2.021,2.021,0,0,1-.085,1.8,1.474,1.474,0,0,1-.965.729,2,2,0,0,1-1.205-.187c-.679-.323-1.108-.5-1.59-.353a1.441,1.441,0,0,0-.952.8c-.316.723-.049,1.28-.161,1.322-.052.078-.616-.449-.367-1.508a1.943,1.943,0,0,1,1.261-1.307,2.054,2.054,0,0,1,1.124-.062,5.938,5.938,0,0,1,1,.383c1.155.663,1.674-.714,1.41-1.445C86.643,239.166,86.333,238.649,86.448,238.588Z" transform="translate(-82.006 -238.585)" fill="#f9f2fc"/>
                </g>
              </g>
            </g>
            <g id="Group_474" data-name="Group 474" transform="translate(35.288 77.213)">
              <g id="Group_473" data-name="Group 473">
                <g id="Group_472" data-name="Group 472">
                  <path id="Path_1442" data-name="Path 1442" d="M103.281,235.575c.073-.041.529.3.946,1.2a2.02,2.02,0,0,1-.084,1.8,1.481,1.481,0,0,1-.966.729,2,2,0,0,1-1.2-.187c-.677-.323-1.106-.5-1.59-.353a1.438,1.438,0,0,0-.951.8c-.316.723-.05,1.28-.161,1.322-.053.078-.618-.449-.368-1.508a1.947,1.947,0,0,1,1.261-1.307,2.061,2.061,0,0,1,1.126-.062,5.989,5.989,0,0,1,1,.383c1.155.663,1.672-.715,1.41-1.444C103.478,236.153,103.167,235.636,103.281,235.575Z" transform="translate(-98.839 -235.572)" fill="#f9f2fc"/>
                </g>
              </g>
            </g>
            <g id="Group_477" data-name="Group 477" transform="translate(13.6 73.338)">
              <g id="Group_476" data-name="Group 476">
                <g id="Group_475" data-name="Group 475">
                  <path id="Path_1443" data-name="Path 1443" d="M94.926,263.854a6.052,6.052,0,0,1,.017-1.567c.062-1,.178-2.454.338-4.243.318-3.575.82-8.519,1.409-13.959a15.87,15.87,0,0,0,.018-3.89,6.812,6.812,0,0,0-1.342-3.227,9.016,9.016,0,0,0-5.065-3.152,15.3,15.3,0,0,0-4.157-.364,8.646,8.646,0,0,1-1.559.037,4.616,4.616,0,0,1,1.535-.344,13.367,13.367,0,0,1,4.3.123,9.383,9.383,0,0,1,5.518,3.251,7.476,7.476,0,0,1,1.532,3.556,16.123,16.123,0,0,1,0,4.088c-.59,5.457-1.179,10.379-1.64,13.944-.231,1.78-.432,3.221-.587,4.214A5.94,5.94,0,0,1,94.926,263.854Z" transform="translate(-84.585 -233.025)" fill="#251a51"/>
                </g>
              </g>
            </g>
            <g id="Group_480" data-name="Group 480" transform="translate(1.647 102.862)">
              <g id="Group_479" data-name="Group 479">
                <g id="Group_478" data-name="Group 478">
                  <path id="Path_1444" data-name="Path 1444" d="M100.04,252.492c.023.218-5.177.946-11.613,1.626s-11.674,1.057-11.7.84,5.176-.946,11.615-1.628S100.017,252.275,100.04,252.492Z" transform="translate(-76.728 -252.43)" fill="#251a51"/>
                </g>
              </g>
            </g>
            <g id="Group_483" data-name="Group 483" transform="translate(51.774 81.2)">
              <g id="Group_482" data-name="Group 482">
                <g id="Group_481" data-name="Group 481">
                  <path id="Path_1445" data-name="Path 1445" d="M114.548,257.342c-.262-.023,1-4.613-.438-10.078-1.346-5.491-4.642-8.923-4.424-9.068a7.683,7.683,0,0,1,2.089,2.209,19.749,19.749,0,0,1,3.556,14A7.733,7.733,0,0,1,114.548,257.342Z" transform="translate(-109.675 -238.193)" fill="#251a51"/>
                </g>
              </g>
            </g>
            <g id="Group_485" data-name="Group 485" transform="translate(115.247 87.577)">
              <g id="Group_484" data-name="Group 484">
                <path id="Path_1446" data-name="Path 1446" d="M153.687,255.528a8.8,8.8,0,0,1,.889-3.7c1.453-2.294,3.525-1.725,5.529-.715,2.036,1.024,3.951,1.639,6.165.682,3.487-1.509,5.033-6.672,1.786-9.164-1.051-.809-2.136.523-1.979,1.521.221,1.4.905,2.956-.3,4.164-1.613,1.617-3.5.263-5.112-.463a6.658,6.658,0,0,0-5.359-.237c-3.081,1.242-5.319,5.416-2.872,8.239a.754.754,0,0,0,1.252-.33Z" transform="translate(-151.394 -242.384)" fill="#6e3281"/>
              </g>
            </g>
            <g id="Group_487" data-name="Group 487" transform="translate(125.692 33.418)">
              <g id="Group_486" data-name="Group 486">
                <path id="Path_1447" data-name="Path 1447" d="M158.266,214.14c.327,2.118,2.523,6.582,4.838,7.2,1.228.326,2.141-.484,3.095-1.14,1.737-1.2,3.455-2.424,5.173-3.647a1.491,1.491,0,0,0,.526-2.005q-2.282-3.512-4.563-7.021A1.482,1.482,0,0,0,165.33,207a60.964,60.964,0,0,0-5.667,4.146c-1.185,1.065.329,2.877,1.66,2.15a58.189,58.189,0,0,0,5.488-3.764l-2.005-.526,4.561,7.021.526-2.005c-1.032.735-2.066,1.465-3.095,2.2-.516.37-2.626,2.294-3.186,2.17-.665-.149-1.737-2.066-2.157-2.565A11.828,11.828,0,0,0,159.1,213.5c-.453-.31-.9.2-.832.639Z" transform="translate(-158.259 -206.787)" fill="#edc483"/>
              </g>
            </g>
            <g id="Group_489" data-name="Group 489" transform="translate(101.824 59.74)">
              <g id="Group_488" data-name="Group 488">
                <path id="Path_1448" data-name="Path 1448" d="M144.906,226.945c-2.392,2.3-3.3,5.87-1.021,8.628a6.691,6.691,0,0,0,8.983,1.077c6.472-5-.274-14.215-7.259-12.307a1.161,1.161,0,0,0,.306,2.27c2.043.116,4.23.195,5.861,1.625a4.248,4.248,0,0,1,.353,5.906c-3.807,4.681-10.42-2.212-6.421-6.4a.567.567,0,0,0-.8-.8Z" transform="translate(-142.571 -224.088)" fill="#8aa9fc"/>
              </g>
            </g>
            <g id="Group_491" data-name="Group 491" transform="translate(156.969 82.679)">
              <g id="Group_490" data-name="Group 490">
                <path id="Path_1449" data-name="Path 1449" d="M181.022,240.321c-.825,4.281-1.529,8.57-2.183,12.882a1.313,1.313,0,0,0,1.585,1.585c4.047-.589,8.085-1.132,12.079-2.016a1.209,1.209,0,0,0,.717-1.759c-2.265-3.986-5.147-9.536-9.409-11.711-1.077-.551-2.606.641-1.8,1.8,1.269,1.824,3.145,3.192,4.619,4.863a34.207,34.207,0,0,1,4.52,6.258l1.035-1.8c-4.185.414-8.3,1.165-12.445,1.884l1.631,1.242c.5-4.333.943-8.657,1.269-13.005a.827.827,0,0,0-1.617-.219Z" transform="translate(-178.817 -239.165)" fill="#e3707f"/>
              </g>
            </g>
            <g id="Group_493" data-name="Group 493" transform="translate(138.956 61.7)">
              <g id="Group_492" data-name="Group 492">
                <path id="Path_1450" data-name="Path 1450" d="M168.575,239.564a76,76,0,0,0,1.882-13c.059-1.339-2.122-1.675-2.373-.321a75.829,75.829,0,0,0-1.106,13.107.817.817,0,0,0,1.6.216Z" transform="translate(-166.977 -225.376)" fill="#e8947e"/>
              </g>
            </g>
            <g id="Group_495" data-name="Group 495" transform="translate(186.065 73.385)">
              <g id="Group_494" data-name="Group 494">
                <path id="Path_1451" data-name="Path 1451" d="M198.527,234.912a75.751,75.751,0,0,0,13.078.86,1.21,1.21,0,0,0,0-2.418,74.414,74.414,0,0,0-12.862-.038c-.846.061-1.182,1.461-.216,1.6Z" transform="translate(-197.94 -233.056)" fill="#edc483"/>
              </g>
            </g>
            <g id="Group_497" data-name="Group 497" transform="translate(151.471 19.345)">
              <g id="Group_496" data-name="Group 496">
                <path id="Path_1452" data-name="Path 1452" d="M175.6,199.057a73.324,73.324,0,0,0,12,5.334,1.214,1.214,0,0,0,.933-2.209,73.414,73.414,0,0,0-12.307-4.611.817.817,0,0,0-.625,1.486Z" transform="translate(-175.203 -197.538)" fill="#e3707f"/>
              </g>
            </g>
            <g id="Group_499" data-name="Group 499" transform="translate(159.693 54.78)">
              <g id="Group_498" data-name="Group 498">
                <path id="Path_1453" data-name="Path 1453" d="M184.972,221.72l-.219-.193a2.442,2.442,0,0,0-3.454,3.454l.193.219a2.46,2.46,0,0,0,3.48-3.48Z" transform="translate(-180.607 -220.827)" fill="#251a51"/>
              </g>
            </g>
          </g>
        </g>
      </g>
      <path id="Path_1454" data-name="Path 1454" d="M125.515,170.919a15.588,15.588,0,0,0-9.616,9.326,16.036,16.036,0,0,0,1.2,13.366c4.467,7.692,15.933,10.169,23.176,5.007s8.643-16.809,2.828-23.54-17.541-7.041-23.7-.627" transform="translate(334.552 189.706)" fill="#ddd2f3"/>
    </g>
  </g>
</svg>
